<svg xmlns="http://www.w3.org/2000/svg" viewBox="0 0 770 770" shape-rendering="crispEdges"><rect width="770" height="770" fill="#fff"></rect><path d="M40 40h10v10h-10zM50 40h10v10h-10zM60 40h10v10h-10zM70 40h10v10h-10zM80 40h10v10h-10zM90 40h10v10h-10zM100 40h10v10h-10zM120 40h10v10h-10zM140 40h10v10h-10zM150 40h10v10h-10zM160 40h10v10h-10zM190 40h10v10h-10zM230 40h10v10h-10zM240 40h10v10h-10zM260 40h10v10h-10zM280 40h10v10h-10zM350 40h10v10h-10zM370 40h10v10h-10zM390 40h10v10h-10zM410 40h10v10h-10zM430 40h10v10h-10zM460 40h10v10h-10zM480 40h10v10h-10zM500 40h10v10h-10zM530 40h10v10h-10zM580 40h10v10h-10zM620 40h10v10h-10zM630 40h10v10h-10zM640 40h10v10h-10zM660 40h10v10h-10zM670 40h10v10h-10zM680 40h10v10h-10zM690 40h10v10h-10zM700 40h10v10h-10zM710 40h10v10h-10zM720 40h10v10h-10zM40 50h10v10h-10zM100 50h10v10h-10zM120 50h10v10h-10zM160 50h10v10h-10zM170 50h10v10h-10zM180 50h10v10h-10zM190 50h10v10h-10zM210 50h10v10h-10zM220 50h10v10h-10zM260 50h10v10h-10zM280 50h10v10h-10zM290 50h10v10h-10zM310 50h10v10h-10zM320 50h10v10h-10zM340 50h10v10h-10zM360 50h10v10h-10zM370 50h10v10h-10zM420 50h10v10h-10zM430 50h10v10h-10zM450 50h10v10h-10zM460 50h10v10h-10zM520 50h10v10h-10zM550 50h10v10h-10zM570 50h10v10h-10zM580 50h10v10h-10zM590 50h10v10h-10zM610 50h10v10h-10zM660 50h10v10h-10zM720 50h10v10h-10zM40 60h10v10h-10zM60 60h10v10h-10zM70 60h10v10h-10zM80 60h10v10h-10zM100 60h10v10h-10zM130 60h10v10h-10zM160 60h10v10h-10zM170 60h10v10h-10zM230 60h10v10h-10zM260 60h10v10h-10zM280 60h10v10h-10zM290 60h10v10h-10zM300 60h10v10h-10zM320 60h10v10h-10zM380 60h10v10h-10zM390 60h10v10h-10zM430 60h10v10h-10zM460 60h10v10h-10zM480 60h10v10h-10zM500 60h10v10h-10zM530 60h10v10h-10zM540 60h10v10h-10zM550 60h10v10h-10zM560 60h10v10h-10zM580 60h10v10h-10zM600 60h10v10h-10zM620 60h10v10h-10zM660 60h10v10h-10zM680 60h10v10h-10zM690 60h10v10h-10zM700 60h10v10h-10zM720 60h10v10h-10zM40 70h10v10h-10zM60 70h10v10h-10zM70 70h10v10h-10zM80 70h10v10h-10zM100 70h10v10h-10zM120 70h10v10h-10zM130 70h10v10h-10zM150 70h10v10h-10zM170 70h10v10h-10zM220 70h10v10h-10zM240 70h10v10h-10zM250 70h10v10h-10zM270 70h10v10h-10zM280 70h10v10h-10zM290 70h10v10h-10zM300 70h10v10h-10zM310 70h10v10h-10zM320 70h10v10h-10zM340 70h10v10h-10zM390 70h10v10h-10zM400 70h10v10h-10zM410 70h10v10h-10zM450 70h10v10h-10zM470 70h10v10h-10zM500 70h10v10h-10zM510 70h10v10h-10zM520 70h10v10h-10zM530 70h10v10h-10zM590 70h10v10h-10zM610 70h10v10h-10zM640 70h10v10h-10zM660 70h10v10h-10zM680 70h10v10h-10zM690 70h10v10h-10zM700 70h10v10h-10zM720 70h10v10h-10zM40 80h10v10h-10zM60 80h10v10h-10zM70 80h10v10h-10zM80 80h10v10h-10zM100 80h10v10h-10zM130 80h10v10h-10zM140 80h10v10h-10zM160 80h10v10h-10zM170 80h10v10h-10zM190 80h10v10h-10zM200 80h10v10h-10zM220 80h10v10h-10zM230 80h10v10h-10zM260 80h10v10h-10zM280 80h10v10h-10zM300 80h10v10h-10zM310 80h10v10h-10zM330 80h10v10h-10zM340 80h10v10h-10zM350 80h10v10h-10zM360 80h10v10h-10zM370 80h10v10h-10zM380 80h10v10h-10zM390 80h10v10h-10zM400 80h10v10h-10zM410 80h10v10h-10zM420 80h10v10h-10zM430 80h10v10h-10zM440 80h10v10h-10zM450 80h10v10h-10zM490 80h10v10h-10zM510 80h10v10h-10zM520 80h10v10h-10zM530 80h10v10h-10zM540 80h10v10h-10zM560 80h10v10h-10zM570 80h10v10h-10zM590 80h10v10h-10zM610 80h10v10h-10zM620 80h10v10h-10zM640 80h10v10h-10zM660 80h10v10h-10zM680 80h10v10h-10zM690 80h10v10h-10zM700 80h10v10h-10zM720 80h10v10h-10zM40 90h10v10h-10zM100 90h10v10h-10zM130 90h10v10h-10zM140 90h10v10h-10zM150 90h10v10h-10zM160 90h10v10h-10zM170 90h10v10h-10zM230 90h10v10h-10zM240 90h10v10h-10zM260 90h10v10h-10zM270 90h10v10h-10zM290 90h10v10h-10zM310 90h10v10h-10zM360 90h10v10h-10zM400 90h10v10h-10zM410 90h10v10h-10zM420 90h10v10h-10zM430 90h10v10h-10zM450 90h10v10h-10zM460 90h10v10h-10zM470 90h10v10h-10zM480 90h10v10h-10zM500 90h10v10h-10zM530 90h10v10h-10zM540 90h10v10h-10zM580 90h10v10h-10zM600 90h10v10h-10zM620 90h10v10h-10zM660 90h10v10h-10zM720 90h10v10h-10zM40 100h10v10h-10zM50 100h10v10h-10zM60 100h10v10h-10zM70 100h10v10h-10zM80 100h10v10h-10zM90 100h10v10h-10zM100 100h10v10h-10zM120 100h10v10h-10zM140 100h10v10h-10zM160 100h10v10h-10zM180 100h10v10h-10zM200 100h10v10h-10zM220 100h10v10h-10zM240 100h10v10h-10zM260 100h10v10h-10zM280 100h10v10h-10zM300 100h10v10h-10zM320 100h10v10h-10zM340 100h10v10h-10zM360 100h10v10h-10zM380 100h10v10h-10zM400 100h10v10h-10zM420 100h10v10h-10zM440 100h10v10h-10zM460 100h10v10h-10zM480 100h10v10h-10zM500 100h10v10h-10zM520 100h10v10h-10zM540 100h10v10h-10zM560 100h10v10h-10zM580 100h10v10h-10zM600 100h10v10h-10zM620 100h10v10h-10zM640 100h10v10h-10zM660 100h10v10h-10zM670 100h10v10h-10zM680 100h10v10h-10zM690 100h10v10h-10zM700 100h10v10h-10zM710 100h10v10h-10zM720 100h10v10h-10zM120 110h10v10h-10zM150 110h10v10h-10zM160 110h10v10h-10zM170 110h10v10h-10zM190 110h10v10h-10zM240 110h10v10h-10zM250 110h10v10h-10zM260 110h10v10h-10zM270 110h10v10h-10zM280 110h10v10h-10zM290 110h10v10h-10zM300 110h10v10h-10zM330 110h10v10h-10zM340 110h10v10h-10zM360 110h10v10h-10zM400 110h10v10h-10zM420 110h10v10h-10zM440 110h10v10h-10zM460 110h10v10h-10zM470 110h10v10h-10zM490 110h10v10h-10zM520 110h10v10h-10zM540 110h10v10h-10zM570 110h10v10h-10zM630 110h10v10h-10zM40 120h10v10h-10zM60 120h10v10h-10zM70 120h10v10h-10zM90 120h10v10h-10zM100 120h10v10h-10zM110 120h10v10h-10zM130 120h10v10h-10zM140 120h10v10h-10zM150 120h10v10h-10zM170 120h10v10h-10zM220 120h10v10h-10zM290 120h10v10h-10zM310 120h10v10h-10zM330 120h10v10h-10zM360 120h10v10h-10zM370 120h10v10h-10zM380 120h10v10h-10zM390 120h10v10h-10zM400 120h10v10h-10zM410 120h10v10h-10zM420 120h10v10h-10zM430 120h10v10h-10zM440 120h10v10h-10zM460 120h10v10h-10zM470 120h10v10h-10zM490 120h10v10h-10zM500 120h10v10h-10zM510 120h10v10h-10zM530 120h10v10h-10zM540 120h10v10h-10zM550 120h10v10h-10zM580 120h10v10h-10zM610 120h10v10h-10zM620 120h10v10h-10zM630 120h10v10h-10zM640 120h10v10h-10zM660 120h10v10h-10zM690 120h10v10h-10zM710 120h10v10h-10zM720 120h10v10h-10zM50 130h10v10h-10zM70 130h10v10h-10zM120 130h10v10h-10zM150 130h10v10h-10zM160 130h10v10h-10zM170 130h10v10h-10zM180 130h10v10h-10zM190 130h10v10h-10zM200 130h10v10h-10zM210 130h10v10h-10zM230 130h10v10h-10zM240 130h10v10h-10zM250 130h10v10h-10zM290 130h10v10h-10zM350 130h10v10h-10zM360 130h10v10h-10zM370 130h10v10h-10zM380 130h10v10h-10zM410 130h10v10h-10zM430 130h10v10h-10zM450 130h10v10h-10zM480 130h10v10h-10zM520 130h10v10h-10zM530 130h10v10h-10zM550 130h10v10h-10zM560 130h10v10h-10zM580 130h10v10h-10zM640 130h10v10h-10zM650 130h10v10h-10zM690 130h10v10h-10zM700 130h10v10h-10zM710 130h10v10h-10zM720 130h10v10h-10zM50 140h10v10h-10zM60 140h10v10h-10zM100 140h10v10h-10zM110 140h10v10h-10zM130 140h10v10h-10zM190 140h10v10h-10zM200 140h10v10h-10zM210 140h10v10h-10zM220 140h10v10h-10zM270 140h10v10h-10zM280 140h10v10h-10zM290 140h10v10h-10zM300 140h10v10h-10zM340 140h10v10h-10zM360 140h10v10h-10zM380 140h10v10h-10zM410 140h10v10h-10zM450 140h10v10h-10zM470 140h10v10h-10zM480 140h10v10h-10zM490 140h10v10h-10zM500 140h10v10h-10zM530 140h10v10h-10zM550 140h10v10h-10zM560 140h10v10h-10zM580 140h10v10h-10zM600 140h10v10h-10zM630 140h10v10h-10zM680 140h10v10h-10zM720 140h10v10h-10zM40 150h10v10h-10zM50 150h10v10h-10zM80 150h10v10h-10zM90 150h10v10h-10zM110 150h10v10h-10zM140 150h10v10h-10zM150 150h10v10h-10zM160 150h10v10h-10zM210 150h10v10h-10zM230 150h10v10h-10zM250 150h10v10h-10zM260 150h10v10h-10zM280 150h10v10h-10zM300 150h10v10h-10zM330 150h10v10h-10zM370 150h10v10h-10zM380 150h10v10h-10zM390 150h10v10h-10zM400 150h10v10h-10zM420 150h10v10h-10zM460 150h10v10h-10zM470 150h10v10h-10zM480 150h10v10h-10zM550 150h10v10h-10zM570 150h10v10h-10zM580 150h10v10h-10zM610 150h10v10h-10zM620 150h10v10h-10zM640 150h10v10h-10zM650 150h10v10h-10zM670 150h10v10h-10zM690 150h10v10h-10zM710 150h10v10h-10zM50 160h10v10h-10zM90 160h10v10h-10zM100 160h10v10h-10zM120 160h10v10h-10zM170 160h10v10h-10zM200 160h10v10h-10zM210 160h10v10h-10zM220 160h10v10h-10zM240 160h10v10h-10zM260 160h10v10h-10zM280 160h10v10h-10zM300 160h10v10h-10zM310 160h10v10h-10zM340 160h10v10h-10zM360 160h10v10h-10zM370 160h10v10h-10zM400 160h10v10h-10zM420 160h10v10h-10zM470 160h10v10h-10zM490 160h10v10h-10zM500 160h10v10h-10zM510 160h10v10h-10zM520 160h10v10h-10zM530 160h10v10h-10zM540 160h10v10h-10zM550 160h10v10h-10zM570 160h10v10h-10zM580 160h10v10h-10zM590 160h10v10h-10zM610 160h10v10h-10zM620 160h10v10h-10zM640 160h10v10h-10zM650 160h10v10h-10zM670 160h10v10h-10zM690 160h10v10h-10zM710 160h10v10h-10zM720 160h10v10h-10zM40 170h10v10h-10zM50 170h10v10h-10zM60 170h10v10h-10zM120 170h10v10h-10zM130 170h10v10h-10zM140 170h10v10h-10zM150 170h10v10h-10zM160 170h10v10h-10zM170 170h10v10h-10zM200 170h10v10h-10zM220 170h10v10h-10zM260 170h10v10h-10zM270 170h10v10h-10zM300 170h10v10h-10zM310 170h10v10h-10zM330 170h10v10h-10zM360 170h10v10h-10zM380 170h10v10h-10zM390 170h10v10h-10zM410 170h10v10h-10zM420 170h10v10h-10zM430 170h10v10h-10zM450 170h10v10h-10zM470 170h10v10h-10zM490 170h10v10h-10zM540 170h10v10h-10zM550 170h10v10h-10zM570 170h10v10h-10zM590 170h10v10h-10zM600 170h10v10h-10zM610 170h10v10h-10zM660 170h10v10h-10zM670 170h10v10h-10zM690 170h10v10h-10zM710 170h10v10h-10zM720 170h10v10h-10zM50 180h10v10h-10zM60 180h10v10h-10zM70 180h10v10h-10zM100 180h10v10h-10zM110 180h10v10h-10zM130 180h10v10h-10zM140 180h10v10h-10zM180 180h10v10h-10zM210 180h10v10h-10zM230 180h10v10h-10zM250 180h10v10h-10zM290 180h10v10h-10zM310 180h10v10h-10zM320 180h10v10h-10zM330 180h10v10h-10zM360 180h10v10h-10zM370 180h10v10h-10zM380 180h10v10h-10zM390 180h10v10h-10zM410 180h10v10h-10zM420 180h10v10h-10zM430 180h10v10h-10zM440 180h10v10h-10zM450 180h10v10h-10zM460 180h10v10h-10zM470 180h10v10h-10zM500 180h10v10h-10zM510 180h10v10h-10zM520 180h10v10h-10zM540 180h10v10h-10zM550 180h10v10h-10zM560 180h10v10h-10zM590 180h10v10h-10zM620 180h10v10h-10zM630 180h10v10h-10zM640 180h10v10h-10zM650 180h10v10h-10zM680 180h10v10h-10zM690 180h10v10h-10zM700 180h10v10h-10zM40 190h10v10h-10zM50 190h10v10h-10zM90 190h10v10h-10zM120 190h10v10h-10zM130 190h10v10h-10zM140 190h10v10h-10zM190 190h10v10h-10zM200 190h10v10h-10zM210 190h10v10h-10zM220 190h10v10h-10zM230 190h10v10h-10zM240 190h10v10h-10zM250 190h10v10h-10zM260 190h10v10h-10zM300 190h10v10h-10zM330 190h10v10h-10zM340 190h10v10h-10zM350 190h10v10h-10zM390 190h10v10h-10zM410 190h10v10h-10zM420 190h10v10h-10zM430 190h10v10h-10zM450 190h10v10h-10zM460 190h10v10h-10zM470 190h10v10h-10zM480 190h10v10h-10zM510 190h10v10h-10zM530 190h10v10h-10zM540 190h10v10h-10zM550 190h10v10h-10zM570 190h10v10h-10zM580 190h10v10h-10zM610 190h10v10h-10zM620 190h10v10h-10zM630 190h10v10h-10zM640 190h10v10h-10zM650 190h10v10h-10zM660 190h10v10h-10zM670 190h10v10h-10zM700 190h10v10h-10zM710 190h10v10h-10zM720 190h10v10h-10zM90 200h10v10h-10zM100 200h10v10h-10zM110 200h10v10h-10zM120 200h10v10h-10zM140 200h10v10h-10zM180 200h10v10h-10zM190 200h10v10h-10zM210 200h10v10h-10zM220 200h10v10h-10zM230 200h10v10h-10zM250 200h10v10h-10zM270 200h10v10h-10zM290 200h10v10h-10zM300 200h10v10h-10zM330 200h10v10h-10zM350 200h10v10h-10zM360 200h10v10h-10zM380 200h10v10h-10zM390 200h10v10h-10zM450 200h10v10h-10zM480 200h10v10h-10zM490 200h10v10h-10zM510 200h10v10h-10zM530 200h10v10h-10zM540 200h10v10h-10zM550 200h10v10h-10zM570 200h10v10h-10zM590 200h10v10h-10zM600 200h10v10h-10zM620 200h10v10h-10zM630 200h10v10h-10zM640 200h10v10h-10zM670 200h10v10h-10zM690 200h10v10h-10zM700 200h10v10h-10zM50 210h10v10h-10zM70 210h10v10h-10zM120 210h10v10h-10zM140 210h10v10h-10zM160 210h10v10h-10zM180 210h10v10h-10zM200 210h10v10h-10zM210 210h10v10h-10zM220 210h10v10h-10zM260 210h10v10h-10zM270 210h10v10h-10zM280 210h10v10h-10zM310 210h10v10h-10zM320 210h10v10h-10zM330 210h10v10h-10zM340 210h10v10h-10zM370 210h10v10h-10zM380 210h10v10h-10zM390 210h10v10h-10zM420 210h10v10h-10zM440 210h10v10h-10zM480 210h10v10h-10zM490 210h10v10h-10zM500 210h10v10h-10zM530 210h10v10h-10zM570 210h10v10h-10zM590 210h10v10h-10zM600 210h10v10h-10zM610 210h10v10h-10zM620 210h10v10h-10zM630 210h10v10h-10zM680 210h10v10h-10zM690 210h10v10h-10zM700 210h10v10h-10zM710 210h10v10h-10zM720 210h10v10h-10zM100 220h10v10h-10zM120 220h10v10h-10zM170 220h10v10h-10zM180 220h10v10h-10zM190 220h10v10h-10zM220 220h10v10h-10zM250 220h10v10h-10zM290 220h10v10h-10zM330 220h10v10h-10zM340 220h10v10h-10zM350 220h10v10h-10zM360 220h10v10h-10zM390 220h10v10h-10zM400 220h10v10h-10zM430 220h10v10h-10zM470 220h10v10h-10zM500 220h10v10h-10zM520 220h10v10h-10zM550 220h10v10h-10zM570 220h10v10h-10zM580 220h10v10h-10zM670 220h10v10h-10zM690 220h10v10h-10zM700 220h10v10h-10zM40 230h10v10h-10zM70 230h10v10h-10zM90 230h10v10h-10zM150 230h10v10h-10zM180 230h10v10h-10zM190 230h10v10h-10zM240 230h10v10h-10zM270 230h10v10h-10zM280 230h10v10h-10zM290 230h10v10h-10zM300 230h10v10h-10zM310 230h10v10h-10zM330 230h10v10h-10zM350 230h10v10h-10zM360 230h10v10h-10zM370 230h10v10h-10zM400 230h10v10h-10zM410 230h10v10h-10zM430 230h10v10h-10zM450 230h10v10h-10zM460 230h10v10h-10zM470 230h10v10h-10zM500 230h10v10h-10zM510 230h10v10h-10zM520 230h10v10h-10zM530 230h10v10h-10zM590 230h10v10h-10zM600 230h10v10h-10zM620 230h10v10h-10zM640 230h10v10h-10zM650 230h10v10h-10zM660 230h10v10h-10zM680 230h10v10h-10zM690 230h10v10h-10zM720 230h10v10h-10zM50 240h10v10h-10zM60 240h10v10h-10zM70 240h10v10h-10zM80 240h10v10h-10zM90 240h10v10h-10zM100 240h10v10h-10zM140 240h10v10h-10zM150 240h10v10h-10zM160 240h10v10h-10zM190 240h10v10h-10zM200 240h10v10h-10zM230 240h10v10h-10zM240 240h10v10h-10zM280 240h10v10h-10zM290 240h10v10h-10zM300 240h10v10h-10zM330 240h10v10h-10zM350 240h10v10h-10zM360 240h10v10h-10zM400 240h10v10h-10zM440 240h10v10h-10zM460 240h10v10h-10zM500 240h10v10h-10zM510 240h10v10h-10zM530 240h10v10h-10zM560 240h10v10h-10zM640 240h10v10h-10zM660 240h10v10h-10zM670 240h10v10h-10zM680 240h10v10h-10zM40 250h10v10h-10zM130 250h10v10h-10zM170 250h10v10h-10zM180 250h10v10h-10zM190 250h10v10h-10zM220 250h10v10h-10zM250 250h10v10h-10zM260 250h10v10h-10zM270 250h10v10h-10zM290 250h10v10h-10zM370 250h10v10h-10zM380 250h10v10h-10zM450 250h10v10h-10zM460 250h10v10h-10zM490 250h10v10h-10zM510 250h10v10h-10zM550 250h10v10h-10zM560 250h10v10h-10zM580 250h10v10h-10zM590 250h10v10h-10zM600 250h10v10h-10zM630 250h10v10h-10zM640 250h10v10h-10zM650 250h10v10h-10zM700 250h10v10h-10zM720 250h10v10h-10zM50 260h10v10h-10zM80 260h10v10h-10zM90 260h10v10h-10zM100 260h10v10h-10zM120 260h10v10h-10zM140 260h10v10h-10zM160 260h10v10h-10zM170 260h10v10h-10zM180 260h10v10h-10zM190 260h10v10h-10zM200 260h10v10h-10zM230 260h10v10h-10zM240 260h10v10h-10zM250 260h10v10h-10zM270 260h10v10h-10zM290 260h10v10h-10zM300 260h10v10h-10zM310 260h10v10h-10zM330 260h10v10h-10zM360 260h10v10h-10zM370 260h10v10h-10zM420 260h10v10h-10zM450 260h10v10h-10zM470 260h10v10h-10zM490 260h10v10h-10zM500 260h10v10h-10zM510 260h10v10h-10zM530 260h10v10h-10zM570 260h10v10h-10zM640 260h10v10h-10zM660 260h10v10h-10zM670 260h10v10h-10zM700 260h10v10h-10zM710 260h10v10h-10zM720 260h10v10h-10zM40 270h10v10h-10zM60 270h10v10h-10zM80 270h10v10h-10zM90 270h10v10h-10zM150 270h10v10h-10zM190 270h10v10h-10zM210 270h10v10h-10zM220 270h10v10h-10zM250 270h10v10h-10zM270 270h10v10h-10zM280 270h10v10h-10zM310 270h10v10h-10zM320 270h10v10h-10zM340 270h10v10h-10zM370 270h10v10h-10zM380 270h10v10h-10zM410 270h10v10h-10zM450 270h10v10h-10zM460 270h10v10h-10zM480 270h10v10h-10zM500 270h10v10h-10zM540 270h10v10h-10zM550 270h10v10h-10zM590 270h10v10h-10zM610 270h10v10h-10zM650 270h10v10h-10zM660 270h10v10h-10zM670 270h10v10h-10zM690 270h10v10h-10zM710 270h10v10h-10zM720 270h10v10h-10zM90 280h10v10h-10zM100 280h10v10h-10zM110 280h10v10h-10zM120 280h10v10h-10zM130 280h10v10h-10zM140 280h10v10h-10zM160 280h10v10h-10zM190 280h10v10h-10zM220 280h10v10h-10zM230 280h10v10h-10zM240 280h10v10h-10zM270 280h10v10h-10zM280 280h10v10h-10zM300 280h10v10h-10zM320 280h10v10h-10zM330 280h10v10h-10zM340 280h10v10h-10zM370 280h10v10h-10zM380 280h10v10h-10zM390 280h10v10h-10zM400 280h10v10h-10zM410 280h10v10h-10zM420 280h10v10h-10zM450 280h10v10h-10zM520 280h10v10h-10zM530 280h10v10h-10zM550 280h10v10h-10zM620 280h10v10h-10zM630 280h10v10h-10zM660 280h10v10h-10zM700 280h10v10h-10zM710 280h10v10h-10zM40 290h10v10h-10zM80 290h10v10h-10zM90 290h10v10h-10zM120 290h10v10h-10zM140 290h10v10h-10zM180 290h10v10h-10zM210 290h10v10h-10zM250 290h10v10h-10zM260 290h10v10h-10zM270 290h10v10h-10zM300 290h10v10h-10zM310 290h10v10h-10zM340 290h10v10h-10zM360 290h10v10h-10zM370 290h10v10h-10zM390 290h10v10h-10zM400 290h10v10h-10zM410 290h10v10h-10zM420 290h10v10h-10zM430 290h10v10h-10zM490 290h10v10h-10zM530 290h10v10h-10zM540 290h10v10h-10zM550 290h10v10h-10zM560 290h10v10h-10zM590 290h10v10h-10zM600 290h10v10h-10zM610 290h10v10h-10zM630 290h10v10h-10zM650 290h10v10h-10zM660 290h10v10h-10zM670 290h10v10h-10zM690 290h10v10h-10zM700 290h10v10h-10zM710 290h10v10h-10zM50 300h10v10h-10zM100 300h10v10h-10zM110 300h10v10h-10zM140 300h10v10h-10zM150 300h10v10h-10zM160 300h10v10h-10zM190 300h10v10h-10zM210 300h10v10h-10zM220 300h10v10h-10zM230 300h10v10h-10zM240 300h10v10h-10zM250 300h10v10h-10zM260 300h10v10h-10zM280 300h10v10h-10zM300 300h10v10h-10zM310 300h10v10h-10zM320 300h10v10h-10zM350 300h10v10h-10zM380 300h10v10h-10zM390 300h10v10h-10zM410 300h10v10h-10zM420 300h10v10h-10zM440 300h10v10h-10zM450 300h10v10h-10zM460 300h10v10h-10zM480 300h10v10h-10zM500 300h10v10h-10zM510 300h10v10h-10zM520 300h10v10h-10zM550 300h10v10h-10zM560 300h10v10h-10zM590 300h10v10h-10zM610 300h10v10h-10zM640 300h10v10h-10zM650 300h10v10h-10zM670 300h10v10h-10zM680 300h10v10h-10zM690 300h10v10h-10zM700 300h10v10h-10zM710 300h10v10h-10zM40 310h10v10h-10zM50 310h10v10h-10zM70 310h10v10h-10zM90 310h10v10h-10zM110 310h10v10h-10zM120 310h10v10h-10zM130 310h10v10h-10zM150 310h10v10h-10zM160 310h10v10h-10zM190 310h10v10h-10zM200 310h10v10h-10zM240 310h10v10h-10zM250 310h10v10h-10zM260 310h10v10h-10zM270 310h10v10h-10zM300 310h10v10h-10zM330 310h10v10h-10zM400 310h10v10h-10zM410 310h10v10h-10zM440 310h10v10h-10zM470 310h10v10h-10zM560 310h10v10h-10zM570 310h10v10h-10zM580 310h10v10h-10zM590 310h10v10h-10zM600 310h10v10h-10zM610 310h10v10h-10zM620 310h10v10h-10zM630 310h10v10h-10zM670 310h10v10h-10zM700 310h10v10h-10zM710 310h10v10h-10zM720 310h10v10h-10zM40 320h10v10h-10zM80 320h10v10h-10zM100 320h10v10h-10zM160 320h10v10h-10zM190 320h10v10h-10zM200 320h10v10h-10zM210 320h10v10h-10zM220 320h10v10h-10zM230 320h10v10h-10zM250 320h10v10h-10zM290 320h10v10h-10zM310 320h10v10h-10zM320 320h10v10h-10zM330 320h10v10h-10zM370 320h10v10h-10zM410 320h10v10h-10zM420 320h10v10h-10zM430 320h10v10h-10zM480 320h10v10h-10zM530 320h10v10h-10zM540 320h10v10h-10zM550 320h10v10h-10zM600 320h10v10h-10zM610 320h10v10h-10zM640 320h10v10h-10zM650 320h10v10h-10zM700 320h10v10h-10zM50 330h10v10h-10zM110 330h10v10h-10zM120 330h10v10h-10zM160 330h10v10h-10zM170 330h10v10h-10zM190 330h10v10h-10zM230 330h10v10h-10zM250 330h10v10h-10zM260 330h10v10h-10zM270 330h10v10h-10zM290 330h10v10h-10zM320 330h10v10h-10zM330 330h10v10h-10zM340 330h10v10h-10zM360 330h10v10h-10zM380 330h10v10h-10zM400 330h10v10h-10zM430 330h10v10h-10zM440 330h10v10h-10zM490 330h10v10h-10zM500 330h10v10h-10zM520 330h10v10h-10zM530 330h10v10h-10zM550 330h10v10h-10zM560 330h10v10h-10zM570 330h10v10h-10zM590 330h10v10h-10zM600 330h10v10h-10zM610 330h10v10h-10zM620 330h10v10h-10zM650 330h10v10h-10zM670 330h10v10h-10zM680 330h10v10h-10zM700 330h10v10h-10zM720 330h10v10h-10zM40 340h10v10h-10zM80 340h10v10h-10zM100 340h10v10h-10zM160 340h10v10h-10zM170 340h10v10h-10zM210 340h10v10h-10zM220 340h10v10h-10zM260 340h10v10h-10zM270 340h10v10h-10zM280 340h10v10h-10zM300 340h10v10h-10zM310 340h10v10h-10zM340 340h10v10h-10zM350 340h10v10h-10zM370 340h10v10h-10zM390 340h10v10h-10zM400 340h10v10h-10zM420 340h10v10h-10zM460 340h10v10h-10zM500 340h10v10h-10zM520 340h10v10h-10zM530 340h10v10h-10zM590 340h10v10h-10zM610 340h10v10h-10zM620 340h10v10h-10zM660 340h10v10h-10zM680 340h10v10h-10zM690 340h10v10h-10zM700 340h10v10h-10zM60 350h10v10h-10zM110 350h10v10h-10zM120 350h10v10h-10zM140 350h10v10h-10zM150 350h10v10h-10zM160 350h10v10h-10zM200 350h10v10h-10zM230 350h10v10h-10zM240 350h10v10h-10zM260 350h10v10h-10zM280 350h10v10h-10zM320 350h10v10h-10zM350 350h10v10h-10zM360 350h10v10h-10zM370 350h10v10h-10zM390 350h10v10h-10zM400 350h10v10h-10zM420 350h10v10h-10zM430 350h10v10h-10zM440 350h10v10h-10zM450 350h10v10h-10zM470 350h10v10h-10zM500 350h10v10h-10zM530 350h10v10h-10zM540 350h10v10h-10zM560 350h10v10h-10zM570 350h10v10h-10zM590 350h10v10h-10zM610 350h10v10h-10zM620 350h10v10h-10zM640 350h10v10h-10zM660 350h10v10h-10zM710 350h10v10h-10zM720 350h10v10h-10zM60 360h10v10h-10zM70 360h10v10h-10zM80 360h10v10h-10zM90 360h10v10h-10zM100 360h10v10h-10zM110 360h10v10h-10zM120 360h10v10h-10zM180 360h10v10h-10zM210 360h10v10h-10zM220 360h10v10h-10zM270 360h10v10h-10zM290 360h10v10h-10zM310 360h10v10h-10zM320 360h10v10h-10zM350 360h10v10h-10zM360 360h10v10h-10zM370 360h10v10h-10zM380 360h10v10h-10zM390 360h10v10h-10zM400 360h10v10h-10zM410 360h10v10h-10zM420 360h10v10h-10zM430 360h10v10h-10zM440 360h10v10h-10zM460 360h10v10h-10zM470 360h10v10h-10zM490 360h10v10h-10zM510 360h10v10h-10zM530 360h10v10h-10zM540 360h10v10h-10zM550 360h10v10h-10zM560 360h10v10h-10zM580 360h10v10h-10zM590 360h10v10h-10zM610 360h10v10h-10zM630 360h10v10h-10zM640 360h10v10h-10zM650 360h10v10h-10zM660 360h10v10h-10zM670 360h10v10h-10zM680 360h10v10h-10zM700 360h10v10h-10zM710 360h10v10h-10zM50 370h10v10h-10zM60 370h10v10h-10zM80 370h10v10h-10zM120 370h10v10h-10zM130 370h10v10h-10zM150 370h10v10h-10zM160 370h10v10h-10zM170 370h10v10h-10zM190 370h10v10h-10zM210 370h10v10h-10zM220 370h10v10h-10zM240 370h10v10h-10zM260 370h10v10h-10zM280 370h10v10h-10zM310 370h10v10h-10zM330 370h10v10h-10zM340 370h10v10h-10zM360 370h10v10h-10zM400 370h10v10h-10zM410 370h10v10h-10zM440 370h10v10h-10zM450 370h10v10h-10zM460 370h10v10h-10zM470 370h10v10h-10zM480 370h10v10h-10zM490 370h10v10h-10zM530 370h10v10h-10zM550 370h10v10h-10zM570 370h10v10h-10zM580 370h10v10h-10zM590 370h10v10h-10zM600 370h10v10h-10zM640 370h10v10h-10zM680 370h10v10h-10zM700 370h10v10h-10zM70 380h10v10h-10zM80 380h10v10h-10zM100 380h10v10h-10zM120 380h10v10h-10zM140 380h10v10h-10zM180 380h10v10h-10zM240 380h10v10h-10zM280 380h10v10h-10zM310 380h10v10h-10zM360 380h10v10h-10zM380 380h10v10h-10zM400 380h10v10h-10zM450 380h10v10h-10zM460 380h10v10h-10zM490 380h10v10h-10zM500 380h10v10h-10zM510 380h10v10h-10zM540 380h10v10h-10zM550 380h10v10h-10zM570 380h10v10h-10zM580 380h10v10h-10zM610 380h10v10h-10zM640 380h10v10h-10zM660 380h10v10h-10zM680 380h10v10h-10zM690 380h10v10h-10zM720 380h10v10h-10zM50 390h10v10h-10zM70 390h10v10h-10zM80 390h10v10h-10zM120 390h10v10h-10zM130 390h10v10h-10zM140 390h10v10h-10zM150 390h10v10h-10zM210 390h10v10h-10zM220 390h10v10h-10zM230 390h10v10h-10zM260 390h10v10h-10zM280 390h10v10h-10zM290 390h10v10h-10zM300 390h10v10h-10zM320 390h10v10h-10zM330 390h10v10h-10zM350 390h10v10h-10zM360 390h10v10h-10zM400 390h10v10h-10zM430 390h10v10h-10zM440 390h10v10h-10zM450 390h10v10h-10zM460 390h10v10h-10zM480 390h10v10h-10zM500 390h10v10h-10zM510 390h10v10h-10zM590 390h10v10h-10zM600 390h10v10h-10zM620 390h10v10h-10zM640 390h10v10h-10zM680 390h10v10h-10zM690 390h10v10h-10zM50 400h10v10h-10zM60 400h10v10h-10zM70 400h10v10h-10zM80 400h10v10h-10zM90 400h10v10h-10zM100 400h10v10h-10zM110 400h10v10h-10zM120 400h10v10h-10zM150 400h10v10h-10zM170 400h10v10h-10zM200 400h10v10h-10zM210 400h10v10h-10zM240 400h10v10h-10zM250 400h10v10h-10zM260 400h10v10h-10zM290 400h10v10h-10zM300 400h10v10h-10zM310 400h10v10h-10zM330 400h10v10h-10zM340 400h10v10h-10zM360 400h10v10h-10zM370 400h10v10h-10zM380 400h10v10h-10zM390 400h10v10h-10zM400 400h10v10h-10zM410 400h10v10h-10zM450 400h10v10h-10zM520 400h10v10h-10zM580 400h10v10h-10zM590 400h10v10h-10zM610 400h10v10h-10zM620 400h10v10h-10zM640 400h10v10h-10zM650 400h10v10h-10zM660 400h10v10h-10zM670 400h10v10h-10zM680 400h10v10h-10zM690 400h10v10h-10zM700 400h10v10h-10zM40 410h10v10h-10zM50 410h10v10h-10zM70 410h10v10h-10zM110 410h10v10h-10zM120 410h10v10h-10zM130 410h10v10h-10zM140 410h10v10h-10zM160 410h10v10h-10zM170 410h10v10h-10zM190 410h10v10h-10zM230 410h10v10h-10zM250 410h10v10h-10zM260 410h10v10h-10zM310 410h10v10h-10zM330 410h10v10h-10zM340 410h10v10h-10zM350 410h10v10h-10zM380 410h10v10h-10zM400 410h10v10h-10zM410 410h10v10h-10zM420 410h10v10h-10zM440 410h10v10h-10zM450 410h10v10h-10zM470 410h10v10h-10zM540 410h10v10h-10zM590 410h10v10h-10zM600 410h10v10h-10zM650 410h10v10h-10zM670 410h10v10h-10zM710 410h10v10h-10zM60 420h10v10h-10zM70 420h10v10h-10zM80 420h10v10h-10zM90 420h10v10h-10zM100 420h10v10h-10zM120 420h10v10h-10zM130 420h10v10h-10zM160 420h10v10h-10zM180 420h10v10h-10zM210 420h10v10h-10zM220 420h10v10h-10zM240 420h10v10h-10zM260 420h10v10h-10zM280 420h10v10h-10zM290 420h10v10h-10zM310 420h10v10h-10zM350 420h10v10h-10zM360 420h10v10h-10zM390 420h10v10h-10zM400 420h10v10h-10zM410 420h10v10h-10zM460 420h10v10h-10zM470 420h10v10h-10zM490 420h10v10h-10zM500 420h10v10h-10zM530 420h10v10h-10zM540 420h10v10h-10zM550 420h10v10h-10zM560 420h10v10h-10zM570 420h10v10h-10zM590 420h10v10h-10zM610 420h10v10h-10zM630 420h10v10h-10zM670 420h10v10h-10zM680 420h10v10h-10zM40 430h10v10h-10zM50 430h10v10h-10zM60 430h10v10h-10zM80 430h10v10h-10zM130 430h10v10h-10zM160 430h10v10h-10zM170 430h10v10h-10zM190 430h10v10h-10zM230 430h10v10h-10zM240 430h10v10h-10zM250 430h10v10h-10zM290 430h10v10h-10zM310 430h10v10h-10zM320 430h10v10h-10zM340 430h10v10h-10zM370 430h10v10h-10zM400 430h10v10h-10zM410 430h10v10h-10zM420 430h10v10h-10zM430 430h10v10h-10zM440 430h10v10h-10zM470 430h10v10h-10zM480 430h10v10h-10zM490 430h10v10h-10zM500 430h10v10h-10zM510 430h10v10h-10zM520 430h10v10h-10zM530 430h10v10h-10zM540 430h10v10h-10zM550 430h10v10h-10zM600 430h10v10h-10zM620 430h10v10h-10zM660 430h10v10h-10zM690 430h10v10h-10zM700 430h10v10h-10zM710 430h10v10h-10zM50 440h10v10h-10zM60 440h10v10h-10zM90 440h10v10h-10zM100 440h10v10h-10zM110 440h10v10h-10zM130 440h10v10h-10zM140 440h10v10h-10zM170 440h10v10h-10zM240 440h10v10h-10zM250 440h10v10h-10zM270 440h10v10h-10zM280 440h10v10h-10zM300 440h10v10h-10zM320 440h10v10h-10zM370 440h10v10h-10zM390 440h10v10h-10zM400 440h10v10h-10zM420 440h10v10h-10zM430 440h10v10h-10zM460 440h10v10h-10zM480 440h10v10h-10zM490 440h10v10h-10zM530 440h10v10h-10zM580 440h10v10h-10zM590 440h10v10h-10zM600 440h10v10h-10zM620 440h10v10h-10zM630 440h10v10h-10zM650 440h10v10h-10zM660 440h10v10h-10zM710 440h10v10h-10zM720 440h10v10h-10zM50 450h10v10h-10zM80 450h10v10h-10zM130 450h10v10h-10zM140 450h10v10h-10zM150 450h10v10h-10zM170 450h10v10h-10zM190 450h10v10h-10zM230 450h10v10h-10zM270 450h10v10h-10zM310 450h10v10h-10zM320 450h10v10h-10zM330 450h10v10h-10zM350 450h10v10h-10zM360 450h10v10h-10zM370 450h10v10h-10zM390 450h10v10h-10zM400 450h10v10h-10zM440 450h10v10h-10zM450 450h10v10h-10zM470 450h10v10h-10zM490 450h10v10h-10zM500 450h10v10h-10zM510 450h10v10h-10zM520 450h10v10h-10zM550 450h10v10h-10zM560 450h10v10h-10zM590 450h10v10h-10zM610 450h10v10h-10zM620 450h10v10h-10zM630 450h10v10h-10zM670 450h10v10h-10zM680 450h10v10h-10zM700 450h10v10h-10zM710 450h10v10h-10zM720 450h10v10h-10zM40 460h10v10h-10zM60 460h10v10h-10zM70 460h10v10h-10zM80 460h10v10h-10zM100 460h10v10h-10zM110 460h10v10h-10zM130 460h10v10h-10zM140 460h10v10h-10zM160 460h10v10h-10zM170 460h10v10h-10zM200 460h10v10h-10zM210 460h10v10h-10zM240 460h10v10h-10zM250 460h10v10h-10zM290 460h10v10h-10zM300 460h10v10h-10zM330 460h10v10h-10zM340 460h10v10h-10zM370 460h10v10h-10zM380 460h10v10h-10zM400 460h10v10h-10zM410 460h10v10h-10zM420 460h10v10h-10zM430 460h10v10h-10zM460 460h10v10h-10zM470 460h10v10h-10zM480 460h10v10h-10zM490 460h10v10h-10zM510 460h10v10h-10zM540 460h10v10h-10zM560 460h10v10h-10zM570 460h10v10h-10zM610 460h10v10h-10zM620 460h10v10h-10zM630 460h10v10h-10zM710 460h10v10h-10zM40 470h10v10h-10zM50 470h10v10h-10zM60 470h10v10h-10zM70 470h10v10h-10zM80 470h10v10h-10zM90 470h10v10h-10zM120 470h10v10h-10zM140 470h10v10h-10zM200 470h10v10h-10zM210 470h10v10h-10zM220 470h10v10h-10zM230 470h10v10h-10zM240 470h10v10h-10zM270 470h10v10h-10zM280 470h10v10h-10zM300 470h10v10h-10zM320 470h10v10h-10zM350 470h10v10h-10zM360 470h10v10h-10zM370 470h10v10h-10zM400 470h10v10h-10zM410 470h10v10h-10zM420 470h10v10h-10zM430 470h10v10h-10zM440 470h10v10h-10zM450 470h10v10h-10zM470 470h10v10h-10zM520 470h10v10h-10zM530 470h10v10h-10zM540 470h10v10h-10zM590 470h10v10h-10zM610 470h10v10h-10zM640 470h10v10h-10zM650 470h10v10h-10zM670 470h10v10h-10zM690 470h10v10h-10zM710 470h10v10h-10zM50 480h10v10h-10zM60 480h10v10h-10zM70 480h10v10h-10zM90 480h10v10h-10zM100 480h10v10h-10zM120 480h10v10h-10zM140 480h10v10h-10zM190 480h10v10h-10zM200 480h10v10h-10zM210 480h10v10h-10zM220 480h10v10h-10zM230 480h10v10h-10zM240 480h10v10h-10zM250 480h10v10h-10zM260 480h10v10h-10zM300 480h10v10h-10zM330 480h10v10h-10zM350 480h10v10h-10zM360 480h10v10h-10zM380 480h10v10h-10zM400 480h10v10h-10zM410 480h10v10h-10zM430 480h10v10h-10zM440 480h10v10h-10zM450 480h10v10h-10zM470 480h10v10h-10zM490 480h10v10h-10zM510 480h10v10h-10zM530 480h10v10h-10zM540 480h10v10h-10zM560 480h10v10h-10zM620 480h10v10h-10zM640 480h10v10h-10zM700 480h10v10h-10zM710 480h10v10h-10zM50 490h10v10h-10zM80 490h10v10h-10zM110 490h10v10h-10zM120 490h10v10h-10zM140 490h10v10h-10zM160 490h10v10h-10zM180 490h10v10h-10zM190 490h10v10h-10zM210 490h10v10h-10zM220 490h10v10h-10zM230 490h10v10h-10zM240 490h10v10h-10zM280 490h10v10h-10zM290 490h10v10h-10zM300 490h10v10h-10zM330 490h10v10h-10zM380 490h10v10h-10zM390 490h10v10h-10zM410 490h10v10h-10zM430 490h10v10h-10zM460 490h10v10h-10zM470 490h10v10h-10zM480 490h10v10h-10zM520 490h10v10h-10zM530 490h10v10h-10zM550 490h10v10h-10zM560 490h10v10h-10zM580 490h10v10h-10zM650 490h10v10h-10zM660 490h10v10h-10zM700 490h10v10h-10zM40 500h10v10h-10zM50 500h10v10h-10zM60 500h10v10h-10zM70 500h10v10h-10zM100 500h10v10h-10zM120 500h10v10h-10zM140 500h10v10h-10zM170 500h10v10h-10zM180 500h10v10h-10zM200 500h10v10h-10zM210 500h10v10h-10zM230 500h10v10h-10zM240 500h10v10h-10zM250 500h10v10h-10zM270 500h10v10h-10zM280 500h10v10h-10zM300 500h10v10h-10zM310 500h10v10h-10zM320 500h10v10h-10zM330 500h10v10h-10zM340 500h10v10h-10zM370 500h10v10h-10zM380 500h10v10h-10zM390 500h10v10h-10zM400 500h10v10h-10zM440 500h10v10h-10zM470 500h10v10h-10zM480 500h10v10h-10zM490 500h10v10h-10zM500 500h10v10h-10zM510 500h10v10h-10zM520 500h10v10h-10zM560 500h10v10h-10zM580 500h10v10h-10zM610 500h10v10h-10zM630 500h10v10h-10zM640 500h10v10h-10zM660 500h10v10h-10zM670 500h10v10h-10zM680 500h10v10h-10zM690 500h10v10h-10zM700 500h10v10h-10zM710 500h10v10h-10zM720 500h10v10h-10zM80 510h10v10h-10zM110 510h10v10h-10zM130 510h10v10h-10zM140 510h10v10h-10zM150 510h10v10h-10zM160 510h10v10h-10zM250 510h10v10h-10zM270 510h10v10h-10zM280 510h10v10h-10zM320 510h10v10h-10zM340 510h10v10h-10zM350 510h10v10h-10zM390 510h10v10h-10zM470 510h10v10h-10zM490 510h10v10h-10zM530 510h10v10h-10zM540 510h10v10h-10zM560 510h10v10h-10zM580 510h10v10h-10zM590 510h10v10h-10zM620 510h10v10h-10zM630 510h10v10h-10zM660 510h10v10h-10zM680 510h10v10h-10zM690 510h10v10h-10zM710 510h10v10h-10zM40 520h10v10h-10zM60 520h10v10h-10zM70 520h10v10h-10zM90 520h10v10h-10zM100 520h10v10h-10zM110 520h10v10h-10zM130 520h10v10h-10zM150 520h10v10h-10zM170 520h10v10h-10zM200 520h10v10h-10zM230 520h10v10h-10zM240 520h10v10h-10zM270 520h10v10h-10zM280 520h10v10h-10zM290 520h10v10h-10zM310 520h10v10h-10zM330 520h10v10h-10zM340 520h10v10h-10zM380 520h10v10h-10zM400 520h10v10h-10zM410 520h10v10h-10zM420 520h10v10h-10zM450 520h10v10h-10zM470 520h10v10h-10zM500 520h10v10h-10zM510 520h10v10h-10zM520 520h10v10h-10zM590 520h10v10h-10zM620 520h10v10h-10zM670 520h10v10h-10zM680 520h10v10h-10zM690 520h10v10h-10zM710 520h10v10h-10zM720 520h10v10h-10zM40 530h10v10h-10zM50 530h10v10h-10zM90 530h10v10h-10zM110 530h10v10h-10zM140 530h10v10h-10zM150 530h10v10h-10zM160 530h10v10h-10zM170 530h10v10h-10zM180 530h10v10h-10zM190 530h10v10h-10zM200 530h10v10h-10zM210 530h10v10h-10zM220 530h10v10h-10zM240 530h10v10h-10zM250 530h10v10h-10zM280 530h10v10h-10zM310 530h10v10h-10zM400 530h10v10h-10zM410 530h10v10h-10zM420 530h10v10h-10zM450 530h10v10h-10zM480 530h10v10h-10zM490 530h10v10h-10zM540 530h10v10h-10zM590 530h10v10h-10zM610 530h10v10h-10zM640 530h10v10h-10zM650 530h10v10h-10zM670 530h10v10h-10zM700 530h10v10h-10zM710 530h10v10h-10zM70 540h10v10h-10zM80 540h10v10h-10zM100 540h10v10h-10zM110 540h10v10h-10zM130 540h10v10h-10zM190 540h10v10h-10zM200 540h10v10h-10zM240 540h10v10h-10zM250 540h10v10h-10zM260 540h10v10h-10zM270 540h10v10h-10zM280 540h10v10h-10zM290 540h10v10h-10zM300 540h10v10h-10zM310 540h10v10h-10zM330 540h10v10h-10zM340 540h10v10h-10zM350 540h10v10h-10zM360 540h10v10h-10zM370 540h10v10h-10zM380 540h10v10h-10zM400 540h10v10h-10zM410 540h10v10h-10zM420 540h10v10h-10zM430 540h10v10h-10zM440 540h10v10h-10zM460 540h10v10h-10zM470 540h10v10h-10zM490 540h10v10h-10zM500 540h10v10h-10zM510 540h10v10h-10zM540 540h10v10h-10zM560 540h10v10h-10zM570 540h10v10h-10zM590 540h10v10h-10zM620 540h10v10h-10zM640 540h10v10h-10zM700 540h10v10h-10zM710 540h10v10h-10zM40 550h10v10h-10zM120 550h10v10h-10zM130 550h10v10h-10zM150 550h10v10h-10zM160 550h10v10h-10zM170 550h10v10h-10zM190 550h10v10h-10zM210 550h10v10h-10zM270 550h10v10h-10zM290 550h10v10h-10zM310 550h10v10h-10zM330 550h10v10h-10zM340 550h10v10h-10zM350 550h10v10h-10zM390 550h10v10h-10zM400 550h10v10h-10zM440 550h10v10h-10zM460 550h10v10h-10zM490 550h10v10h-10zM510 550h10v10h-10zM540 550h10v10h-10zM590 550h10v10h-10zM660 550h10v10h-10zM690 550h10v10h-10zM700 550h10v10h-10zM70 560h10v10h-10zM80 560h10v10h-10zM90 560h10v10h-10zM100 560h10v10h-10zM110 560h10v10h-10zM120 560h10v10h-10zM130 560h10v10h-10zM150 560h10v10h-10zM170 560h10v10h-10zM180 560h10v10h-10zM190 560h10v10h-10zM240 560h10v10h-10zM250 560h10v10h-10zM260 560h10v10h-10zM270 560h10v10h-10zM280 560h10v10h-10zM350 560h10v10h-10zM360 560h10v10h-10zM370 560h10v10h-10zM410 560h10v10h-10zM420 560h10v10h-10zM450 560h10v10h-10zM470 560h10v10h-10zM480 560h10v10h-10zM490 560h10v10h-10zM500 560h10v10h-10zM510 560h10v10h-10zM550 560h10v10h-10zM590 560h10v10h-10zM600 560h10v10h-10zM620 560h10v10h-10zM630 560h10v10h-10zM640 560h10v10h-10zM650 560h10v10h-10zM670 560h10v10h-10zM680 560h10v10h-10zM690 560h10v10h-10zM700 560h10v10h-10zM710 560h10v10h-10zM50 570h10v10h-10zM60 570h10v10h-10zM70 570h10v10h-10zM120 570h10v10h-10zM130 570h10v10h-10zM160 570h10v10h-10zM200 570h10v10h-10zM230 570h10v10h-10zM250 570h10v10h-10zM270 570h10v10h-10zM290 570h10v10h-10zM310 570h10v10h-10zM320 570h10v10h-10zM360 570h10v10h-10zM370 570h10v10h-10zM380 570h10v10h-10zM390 570h10v10h-10zM410 570h10v10h-10zM450 570h10v10h-10zM470 570h10v10h-10zM480 570h10v10h-10zM500 570h10v10h-10zM550 570h10v10h-10zM560 570h10v10h-10zM570 570h10v10h-10zM610 570h10v10h-10zM620 570h10v10h-10zM640 570h10v10h-10zM680 570h10v10h-10zM700 570h10v10h-10zM720 570h10v10h-10zM70 580h10v10h-10zM80 580h10v10h-10zM100 580h10v10h-10zM110 580h10v10h-10zM120 580h10v10h-10zM130 580h10v10h-10zM150 580h10v10h-10zM160 580h10v10h-10zM210 580h10v10h-10zM220 580h10v10h-10zM240 580h10v10h-10zM250 580h10v10h-10zM290 580h10v10h-10zM310 580h10v10h-10zM330 580h10v10h-10zM340 580h10v10h-10zM360 580h10v10h-10zM370 580h10v10h-10zM390 580h10v10h-10zM410 580h10v10h-10zM440 580h10v10h-10zM450 580h10v10h-10zM460 580h10v10h-10zM490 580h10v10h-10zM500 580h10v10h-10zM570 580h10v10h-10zM580 580h10v10h-10zM610 580h10v10h-10zM630 580h10v10h-10zM640 580h10v10h-10zM680 580h10v10h-10zM710 580h10v10h-10zM40 590h10v10h-10zM50 590h10v10h-10zM90 590h10v10h-10zM130 590h10v10h-10zM140 590h10v10h-10zM160 590h10v10h-10zM180 590h10v10h-10zM230 590h10v10h-10zM260 590h10v10h-10zM290 590h10v10h-10zM310 590h10v10h-10zM350 590h10v10h-10zM360 590h10v10h-10zM370 590h10v10h-10zM380 590h10v10h-10zM500 590h10v10h-10zM510 590h10v10h-10zM520 590h10v10h-10zM550 590h10v10h-10zM560 590h10v10h-10zM580 590h10v10h-10zM590 590h10v10h-10zM610 590h10v10h-10zM640 590h10v10h-10zM660 590h10v10h-10zM680 590h10v10h-10zM720 590h10v10h-10zM50 600h10v10h-10zM60 600h10v10h-10zM100 600h10v10h-10zM110 600h10v10h-10zM120 600h10v10h-10zM130 600h10v10h-10zM150 600h10v10h-10zM180 600h10v10h-10zM190 600h10v10h-10zM210 600h10v10h-10zM220 600h10v10h-10zM230 600h10v10h-10zM250 600h10v10h-10zM280 600h10v10h-10zM310 600h10v10h-10zM330 600h10v10h-10zM350 600h10v10h-10zM360 600h10v10h-10zM370 600h10v10h-10zM380 600h10v10h-10zM410 600h10v10h-10zM420 600h10v10h-10zM430 600h10v10h-10zM450 600h10v10h-10zM500 600h10v10h-10zM510 600h10v10h-10zM530 600h10v10h-10zM540 600h10v10h-10zM560 600h10v10h-10zM570 600h10v10h-10zM590 600h10v10h-10zM610 600h10v10h-10zM620 600h10v10h-10zM670 600h10v10h-10zM680 600h10v10h-10zM720 600h10v10h-10zM70 610h10v10h-10zM80 610h10v10h-10zM90 610h10v10h-10zM130 610h10v10h-10zM140 610h10v10h-10zM150 610h10v10h-10zM200 610h10v10h-10zM210 610h10v10h-10zM220 610h10v10h-10zM260 610h10v10h-10zM300 610h10v10h-10zM350 610h10v10h-10zM360 610h10v10h-10zM370 610h10v10h-10zM380 610h10v10h-10zM390 610h10v10h-10zM400 610h10v10h-10zM410 610h10v10h-10zM430 610h10v10h-10zM440 610h10v10h-10zM450 610h10v10h-10zM460 610h10v10h-10zM470 610h10v10h-10zM490 610h10v10h-10zM510 610h10v10h-10zM520 610h10v10h-10zM530 610h10v10h-10zM580 610h10v10h-10zM600 610h10v10h-10zM640 610h10v10h-10zM700 610h10v10h-10zM710 610h10v10h-10zM720 610h10v10h-10zM40 620h10v10h-10zM60 620h10v10h-10zM80 620h10v10h-10zM90 620h10v10h-10zM100 620h10v10h-10zM130 620h10v10h-10zM140 620h10v10h-10zM150 620h10v10h-10zM160 620h10v10h-10zM210 620h10v10h-10zM250 620h10v10h-10zM270 620h10v10h-10zM280 620h10v10h-10zM300 620h10v10h-10zM310 620h10v10h-10zM320 620h10v10h-10zM370 620h10v10h-10zM400 620h10v10h-10zM420 620h10v10h-10zM430 620h10v10h-10zM440 620h10v10h-10zM460 620h10v10h-10zM470 620h10v10h-10zM480 620h10v10h-10zM490 620h10v10h-10zM500 620h10v10h-10zM510 620h10v10h-10zM520 620h10v10h-10zM560 620h10v10h-10zM570 620h10v10h-10zM600 620h10v10h-10zM610 620h10v10h-10zM620 620h10v10h-10zM660 620h10v10h-10zM670 620h10v10h-10zM690 620h10v10h-10zM700 620h10v10h-10zM710 620h10v10h-10zM720 620h10v10h-10zM40 630h10v10h-10zM110 630h10v10h-10zM150 630h10v10h-10zM160 630h10v10h-10zM170 630h10v10h-10zM210 630h10v10h-10zM220 630h10v10h-10zM230 630h10v10h-10zM240 630h10v10h-10zM250 630h10v10h-10zM260 630h10v10h-10zM270 630h10v10h-10zM280 630h10v10h-10zM320 630h10v10h-10zM340 630h10v10h-10zM350 630h10v10h-10zM360 630h10v10h-10zM380 630h10v10h-10zM410 630h10v10h-10zM420 630h10v10h-10zM470 630h10v10h-10zM550 630h10v10h-10zM570 630h10v10h-10zM590 630h10v10h-10zM600 630h10v10h-10zM620 630h10v10h-10zM640 630h10v10h-10zM660 630h10v10h-10zM690 630h10v10h-10zM710 630h10v10h-10zM720 630h10v10h-10zM40 640h10v10h-10zM70 640h10v10h-10zM80 640h10v10h-10zM100 640h10v10h-10zM130 640h10v10h-10zM150 640h10v10h-10zM160 640h10v10h-10zM170 640h10v10h-10zM180 640h10v10h-10zM190 640h10v10h-10zM200 640h10v10h-10zM230 640h10v10h-10zM250 640h10v10h-10zM260 640h10v10h-10zM280 640h10v10h-10zM300 640h10v10h-10zM310 640h10v10h-10zM320 640h10v10h-10zM330 640h10v10h-10zM340 640h10v10h-10zM360 640h10v10h-10zM370 640h10v10h-10zM380 640h10v10h-10zM390 640h10v10h-10zM400 640h10v10h-10zM470 640h10v10h-10zM520 640h10v10h-10zM530 640h10v10h-10zM540 640h10v10h-10zM550 640h10v10h-10zM580 640h10v10h-10zM590 640h10v10h-10zM610 640h10v10h-10zM620 640h10v10h-10zM640 640h10v10h-10zM650 640h10v10h-10zM660 640h10v10h-10zM670 640h10v10h-10zM680 640h10v10h-10zM700 640h10v10h-10zM120 650h10v10h-10zM150 650h10v10h-10zM160 650h10v10h-10zM170 650h10v10h-10zM190 650h10v10h-10zM200 650h10v10h-10zM240 650h10v10h-10zM250 650h10v10h-10zM270 650h10v10h-10zM290 650h10v10h-10zM310 650h10v10h-10zM330 650h10v10h-10zM340 650h10v10h-10zM350 650h10v10h-10zM360 650h10v10h-10zM400 650h10v10h-10zM410 650h10v10h-10zM420 650h10v10h-10zM470 650h10v10h-10zM490 650h10v10h-10zM510 650h10v10h-10zM520 650h10v10h-10zM530 650h10v10h-10zM540 650h10v10h-10zM550 650h10v10h-10zM570 650h10v10h-10zM590 650h10v10h-10zM610 650h10v10h-10zM630 650h10v10h-10zM640 650h10v10h-10zM680 650h10v10h-10zM690 650h10v10h-10zM700 650h10v10h-10zM710 650h10v10h-10zM40 660h10v10h-10zM50 660h10v10h-10zM60 660h10v10h-10zM70 660h10v10h-10zM80 660h10v10h-10zM90 660h10v10h-10zM100 660h10v10h-10zM120 660h10v10h-10zM140 660h10v10h-10zM150 660h10v10h-10zM160 660h10v10h-10zM170 660h10v10h-10zM180 660h10v10h-10zM200 660h10v10h-10zM210 660h10v10h-10zM220 660h10v10h-10zM230 660h10v10h-10zM250 660h10v10h-10zM270 660h10v10h-10zM280 660h10v10h-10zM300 660h10v10h-10zM310 660h10v10h-10zM340 660h10v10h-10zM350 660h10v10h-10zM360 660h10v10h-10zM380 660h10v10h-10zM400 660h10v10h-10zM410 660h10v10h-10zM420 660h10v10h-10zM430 660h10v10h-10zM450 660h10v10h-10zM460 660h10v10h-10zM480 660h10v10h-10zM500 660h10v10h-10zM510 660h10v10h-10zM520 660h10v10h-10zM530 660h10v10h-10zM560 660h10v10h-10zM590 660h10v10h-10zM610 660h10v10h-10zM640 660h10v10h-10zM660 660h10v10h-10zM680 660h10v10h-10zM690 660h10v10h-10zM700 660h10v10h-10zM710 660h10v10h-10zM40 670h10v10h-10zM100 670h10v10h-10zM120 670h10v10h-10zM190 670h10v10h-10zM210 670h10v10h-10zM230 670h10v10h-10zM240 670h10v10h-10zM300 670h10v10h-10zM310 670h10v10h-10zM330 670h10v10h-10zM350 670h10v10h-10zM360 670h10v10h-10zM400 670h10v10h-10zM430 670h10v10h-10zM440 670h10v10h-10zM450 670h10v10h-10zM490 670h10v10h-10zM510 670h10v10h-10zM520 670h10v10h-10zM530 670h10v10h-10zM540 670h10v10h-10zM550 670h10v10h-10zM560 670h10v10h-10zM580 670h10v10h-10zM590 670h10v10h-10zM600 670h10v10h-10zM610 670h10v10h-10zM640 670h10v10h-10zM680 670h10v10h-10zM700 670h10v10h-10zM710 670h10v10h-10zM720 670h10v10h-10zM40 680h10v10h-10zM60 680h10v10h-10zM70 680h10v10h-10zM80 680h10v10h-10zM100 680h10v10h-10zM140 680h10v10h-10zM150 680h10v10h-10zM170 680h10v10h-10zM180 680h10v10h-10zM200 680h10v10h-10zM220 680h10v10h-10zM230 680h10v10h-10zM240 680h10v10h-10zM260 680h10v10h-10zM290 680h10v10h-10zM320 680h10v10h-10zM330 680h10v10h-10zM360 680h10v10h-10zM370 680h10v10h-10zM380 680h10v10h-10zM390 680h10v10h-10zM400 680h10v10h-10zM410 680h10v10h-10zM430 680h10v10h-10zM470 680h10v10h-10zM550 680h10v10h-10zM580 680h10v10h-10zM600 680h10v10h-10zM610 680h10v10h-10zM620 680h10v10h-10zM630 680h10v10h-10zM640 680h10v10h-10zM650 680h10v10h-10zM660 680h10v10h-10zM670 680h10v10h-10zM680 680h10v10h-10zM690 680h10v10h-10zM40 690h10v10h-10zM60 690h10v10h-10zM70 690h10v10h-10zM80 690h10v10h-10zM100 690h10v10h-10zM120 690h10v10h-10zM140 690h10v10h-10zM170 690h10v10h-10zM180 690h10v10h-10zM190 690h10v10h-10zM200 690h10v10h-10zM220 690h10v10h-10zM230 690h10v10h-10zM240 690h10v10h-10zM280 690h10v10h-10zM300 690h10v10h-10zM310 690h10v10h-10zM320 690h10v10h-10zM330 690h10v10h-10zM340 690h10v10h-10zM380 690h10v10h-10zM430 690h10v10h-10zM470 690h10v10h-10zM480 690h10v10h-10zM490 690h10v10h-10zM500 690h10v10h-10zM540 690h10v10h-10zM550 690h10v10h-10zM570 690h10v10h-10zM590 690h10v10h-10zM610 690h10v10h-10zM620 690h10v10h-10zM650 690h10v10h-10zM660 690h10v10h-10zM710 690h10v10h-10zM40 700h10v10h-10zM60 700h10v10h-10zM70 700h10v10h-10zM80 700h10v10h-10zM100 700h10v10h-10zM120 700h10v10h-10zM130 700h10v10h-10zM140 700h10v10h-10zM160 700h10v10h-10zM170 700h10v10h-10zM210 700h10v10h-10zM220 700h10v10h-10zM240 700h10v10h-10zM270 700h10v10h-10zM290 700h10v10h-10zM320 700h10v10h-10zM330 700h10v10h-10zM360 700h10v10h-10zM370 700h10v10h-10zM380 700h10v10h-10zM390 700h10v10h-10zM410 700h10v10h-10zM420 700h10v10h-10zM440 700h10v10h-10zM460 700h10v10h-10zM470 700h10v10h-10zM480 700h10v10h-10zM500 700h10v10h-10zM520 700h10v10h-10zM550 700h10v10h-10zM570 700h10v10h-10zM590 700h10v10h-10zM610 700h10v10h-10zM620 700h10v10h-10zM630 700h10v10h-10zM640 700h10v10h-10zM650 700h10v10h-10zM690 700h10v10h-10zM40 710h10v10h-10zM100 710h10v10h-10zM130 710h10v10h-10zM150 710h10v10h-10zM160 710h10v10h-10zM190 710h10v10h-10zM200 710h10v10h-10zM230 710h10v10h-10zM240 710h10v10h-10zM260 710h10v10h-10zM280 710h10v10h-10zM290 710h10v10h-10zM330 710h10v10h-10zM340 710h10v10h-10zM370 710h10v10h-10zM380 710h10v10h-10zM400 710h10v10h-10zM420 710h10v10h-10zM430 710h10v10h-10zM440 710h10v10h-10zM470 710h10v10h-10zM500 710h10v10h-10zM530 710h10v10h-10zM540 710h10v10h-10zM550 710h10v10h-10zM560 710h10v10h-10zM570 710h10v10h-10zM600 710h10v10h-10zM630 710h10v10h-10zM640 710h10v10h-10zM650 710h10v10h-10zM660 710h10v10h-10zM720 710h10v10h-10zM40 720h10v10h-10zM50 720h10v10h-10zM60 720h10v10h-10zM70 720h10v10h-10zM80 720h10v10h-10zM90 720h10v10h-10zM100 720h10v10h-10zM120 720h10v10h-10zM160 720h10v10h-10zM210 720h10v10h-10zM220 720h10v10h-10zM230 720h10v10h-10zM260 720h10v10h-10zM290 720h10v10h-10zM320 720h10v10h-10zM330 720h10v10h-10zM340 720h10v10h-10zM370 720h10v10h-10zM390 720h10v10h-10zM430 720h10v10h-10zM440 720h10v10h-10zM450 720h10v10h-10zM470 720h10v10h-10zM510 720h10v10h-10zM550 720h10v10h-10zM560 720h10v10h-10zM570 720h10v10h-10zM630 720h10v10h-10zM650 720h10v10h-10zM670 720h10v10h-10zM680 720h10v10h-10zM700 720h10v10h-10z" fill="#000"></path></svg>