<svg xmlns="http://www.w3.org/2000/svg" viewBox="0 0 370 370" shape-rendering="crispEdges"><rect width="370" height="370" fill="#ffffff"></rect><path d="M40 40h10v10h-10zM50 40h10v10h-10zM60 40h10v10h-10zM70 40h10v10h-10zM80 40h10v10h-10zM90 40h10v10h-10zM100 40h10v10h-10zM200 40h10v10h-10zM210 40h10v10h-10zM220 40h10v10h-10zM230 40h10v10h-10zM260 40h10v10h-10zM270 40h10v10h-10zM280 40h10v10h-10zM290 40h10v10h-10zM300 40h10v10h-10zM310 40h10v10h-10zM320 40h10v10h-10zM40 50h10v10h-10zM100 50h10v10h-10zM170 50h10v10h-10zM180 50h10v10h-10zM190 50h10v10h-10zM200 50h10v10h-10zM210 50h10v10h-10zM240 50h10v10h-10zM260 50h10v10h-10zM320 50h10v10h-10zM40 60h10v10h-10zM60 60h10v10h-10zM70 60h10v10h-10zM80 60h10v10h-10zM100 60h10v10h-10zM120 60h10v10h-10zM140 60h10v10h-10zM220 60h10v10h-10zM230 60h10v10h-10zM260 60h10v10h-10zM280 60h10v10h-10zM290 60h10v10h-10zM300 60h10v10h-10zM320 60h10v10h-10zM40 70h10v10h-10zM60 70h10v10h-10zM70 70h10v10h-10zM80 70h10v10h-10zM100 70h10v10h-10zM120 70h10v10h-10zM190 70h10v10h-10zM210 70h10v10h-10zM240 70h10v10h-10zM260 70h10v10h-10zM280 70h10v10h-10zM290 70h10v10h-10zM300 70h10v10h-10zM320 70h10v10h-10zM40 80h10v10h-10zM60 80h10v10h-10zM70 80h10v10h-10zM80 80h10v10h-10zM100 80h10v10h-10zM120 80h10v10h-10zM130 80h10v10h-10zM150 80h10v10h-10zM160 80h10v10h-10zM170 80h10v10h-10zM200 80h10v10h-10zM220 80h10v10h-10zM230 80h10v10h-10zM240 80h10v10h-10zM260 80h10v10h-10zM280 80h10v10h-10zM290 80h10v10h-10zM300 80h10v10h-10zM320 80h10v10h-10zM40 90h10v10h-10zM100 90h10v10h-10zM120 90h10v10h-10zM160 90h10v10h-10zM170 90h10v10h-10zM180 90h10v10h-10zM190 90h10v10h-10zM210 90h10v10h-10zM220 90h10v10h-10zM240 90h10v10h-10zM260 90h10v10h-10zM320 90h10v10h-10zM40 100h10v10h-10zM50 100h10v10h-10zM60 100h10v10h-10zM70 100h10v10h-10zM80 100h10v10h-10zM90 100h10v10h-10zM100 100h10v10h-10zM120 100h10v10h-10zM140 100h10v10h-10zM160 100h10v10h-10zM180 100h10v10h-10zM200 100h10v10h-10zM220 100h10v10h-10zM240 100h10v10h-10zM260 100h10v10h-10zM270 100h10v10h-10zM280 100h10v10h-10zM290 100h10v10h-10zM300 100h10v10h-10zM310 100h10v10h-10zM320 100h10v10h-10zM120 110h10v10h-10zM160 110h10v10h-10zM170 110h10v10h-10zM200 110h10v10h-10zM240 110h10v10h-10zM40 120h10v10h-10zM60 120h10v10h-10zM70 120h10v10h-10zM80 120h10v10h-10zM90 120h10v10h-10zM100 120h10v10h-10zM180 120h10v10h-10zM190 120h10v10h-10zM200 120h10v10h-10zM210 120h10v10h-10zM260 120h10v10h-10zM270 120h10v10h-10zM280 120h10v10h-10zM290 120h10v10h-10zM300 120h10v10h-10zM70 130h10v10h-10zM80 130h10v10h-10zM90 130h10v10h-10zM110 130h10v10h-10zM120 130h10v10h-10zM130 130h10v10h-10zM150 130h10v10h-10zM160 130h10v10h-10zM200 130h10v10h-10zM220 130h10v10h-10zM230 130h10v10h-10zM240 130h10v10h-10zM250 130h10v10h-10zM260 130h10v10h-10zM270 130h10v10h-10zM280 130h10v10h-10zM320 130h10v10h-10zM50 140h10v10h-10zM60 140h10v10h-10zM90 140h10v10h-10zM100 140h10v10h-10zM110 140h10v10h-10zM140 140h10v10h-10zM150 140h10v10h-10zM160 140h10v10h-10zM190 140h10v10h-10zM220 140h10v10h-10zM240 140h10v10h-10zM250 140h10v10h-10zM270 140h10v10h-10zM280 140h10v10h-10zM50 150h10v10h-10zM60 150h10v10h-10zM80 150h10v10h-10zM90 150h10v10h-10zM110 150h10v10h-10zM130 150h10v10h-10zM140 150h10v10h-10zM180 150h10v10h-10zM200 150h10v10h-10zM230 150h10v10h-10zM260 150h10v10h-10zM270 150h10v10h-10zM280 150h10v10h-10zM290 150h10v10h-10zM310 150h10v10h-10zM40 160h10v10h-10zM50 160h10v10h-10zM60 160h10v10h-10zM80 160h10v10h-10zM90 160h10v10h-10zM100 160h10v10h-10zM210 160h10v10h-10zM220 160h10v10h-10zM290 160h10v10h-10zM300 160h10v10h-10zM40 170h10v10h-10zM50 170h10v10h-10zM90 170h10v10h-10zM110 170h10v10h-10zM130 170h10v10h-10zM150 170h10v10h-10zM160 170h10v10h-10zM170 170h10v10h-10zM180 170h10v10h-10zM210 170h10v10h-10zM220 170h10v10h-10zM230 170h10v10h-10zM240 170h10v10h-10zM250 170h10v10h-10zM260 170h10v10h-10zM270 170h10v10h-10zM280 170h10v10h-10zM320 170h10v10h-10zM60 180h10v10h-10zM70 180h10v10h-10zM90 180h10v10h-10zM100 180h10v10h-10zM120 180h10v10h-10zM140 180h10v10h-10zM170 180h10v10h-10zM180 180h10v10h-10zM190 180h10v10h-10zM210 180h10v10h-10zM240 180h10v10h-10zM250 180h10v10h-10zM260 180h10v10h-10zM280 180h10v10h-10zM290 180h10v10h-10zM300 180h10v10h-10zM40 190h10v10h-10zM50 190h10v10h-10zM60 190h10v10h-10zM70 190h10v10h-10zM80 190h10v10h-10zM110 190h10v10h-10zM150 190h10v10h-10zM160 190h10v10h-10zM170 190h10v10h-10zM190 190h10v10h-10zM200 190h10v10h-10zM250 190h10v10h-10zM270 190h10v10h-10zM280 190h10v10h-10zM310 190h10v10h-10zM50 200h10v10h-10zM90 200h10v10h-10zM100 200h10v10h-10zM110 200h10v10h-10zM120 200h10v10h-10zM130 200h10v10h-10zM150 200h10v10h-10zM160 200h10v10h-10zM180 200h10v10h-10zM190 200h10v10h-10zM200 200h10v10h-10zM210 200h10v10h-10zM230 200h10v10h-10zM270 200h10v10h-10zM290 200h10v10h-10zM300 200h10v10h-10zM40 210h10v10h-10zM50 210h10v10h-10zM60 210h10v10h-10zM80 210h10v10h-10zM90 210h10v10h-10zM200 210h10v10h-10zM220 210h10v10h-10zM230 210h10v10h-10zM240 210h10v10h-10zM260 210h10v10h-10zM270 210h10v10h-10zM280 210h10v10h-10zM300 210h10v10h-10zM320 210h10v10h-10zM40 220h10v10h-10zM60 220h10v10h-10zM70 220h10v10h-10zM90 220h10v10h-10zM100 220h10v10h-10zM110 220h10v10h-10zM150 220h10v10h-10zM190 220h10v10h-10zM200 220h10v10h-10zM210 220h10v10h-10zM220 220h10v10h-10zM250 220h10v10h-10zM300 220h10v10h-10zM40 230h10v10h-10zM110 230h10v10h-10zM120 230h10v10h-10zM140 230h10v10h-10zM160 230h10v10h-10zM180 230h10v10h-10zM230 230h10v10h-10zM240 230h10v10h-10zM260 230h10v10h-10zM280 230h10v10h-10zM310 230h10v10h-10zM40 240h10v10h-10zM60 240h10v10h-10zM70 240h10v10h-10zM80 240h10v10h-10zM100 240h10v10h-10zM110 240h10v10h-10zM120 240h10v10h-10zM140 240h10v10h-10zM150 240h10v10h-10zM190 240h10v10h-10zM210 240h10v10h-10zM240 240h10v10h-10zM250 240h10v10h-10zM260 240h10v10h-10zM270 240h10v10h-10zM280 240h10v10h-10zM300 240h10v10h-10zM310 240h10v10h-10zM320 240h10v10h-10zM120 250h10v10h-10zM130 250h10v10h-10zM140 250h10v10h-10zM150 250h10v10h-10zM170 250h10v10h-10zM180 250h10v10h-10zM200 250h10v10h-10zM210 250h10v10h-10zM220 250h10v10h-10zM230 250h10v10h-10zM240 250h10v10h-10zM280 250h10v10h-10zM290 250h10v10h-10zM300 250h10v10h-10zM310 250h10v10h-10zM320 250h10v10h-10zM40 260h10v10h-10zM50 260h10v10h-10zM60 260h10v10h-10zM70 260h10v10h-10zM80 260h10v10h-10zM90 260h10v10h-10zM100 260h10v10h-10zM130 260h10v10h-10zM140 260h10v10h-10zM150 260h10v10h-10zM160 260h10v10h-10zM170 260h10v10h-10zM180 260h10v10h-10zM190 260h10v10h-10zM200 260h10v10h-10zM210 260h10v10h-10zM230 260h10v10h-10zM240 260h10v10h-10zM260 260h10v10h-10zM280 260h10v10h-10zM290 260h10v10h-10zM300 260h10v10h-10zM40 270h10v10h-10zM100 270h10v10h-10zM120 270h10v10h-10zM130 270h10v10h-10zM150 270h10v10h-10zM170 270h10v10h-10zM190 270h10v10h-10zM230 270h10v10h-10zM240 270h10v10h-10zM280 270h10v10h-10zM40 280h10v10h-10zM60 280h10v10h-10zM70 280h10v10h-10zM80 280h10v10h-10zM100 280h10v10h-10zM120 280h10v10h-10zM140 280h10v10h-10zM180 280h10v10h-10zM190 280h10v10h-10zM210 280h10v10h-10zM240 280h10v10h-10zM250 280h10v10h-10zM260 280h10v10h-10zM270 280h10v10h-10zM280 280h10v10h-10zM300 280h10v10h-10zM40 290h10v10h-10zM60 290h10v10h-10zM70 290h10v10h-10zM80 290h10v10h-10zM100 290h10v10h-10zM120 290h10v10h-10zM130 290h10v10h-10zM140 290h10v10h-10zM150 290h10v10h-10zM170 290h10v10h-10zM200 290h10v10h-10zM210 290h10v10h-10zM220 290h10v10h-10zM240 290h10v10h-10zM270 290h10v10h-10zM290 290h10v10h-10zM300 290h10v10h-10zM310 290h10v10h-10zM320 290h10v10h-10zM40 300h10v10h-10zM60 300h10v10h-10zM70 300h10v10h-10zM80 300h10v10h-10zM100 300h10v10h-10zM120 300h10v10h-10zM130 300h10v10h-10zM150 300h10v10h-10zM190 300h10v10h-10zM210 300h10v10h-10zM250 300h10v10h-10zM260 300h10v10h-10zM270 300h10v10h-10zM280 300h10v10h-10zM290 300h10v10h-10zM300 300h10v10h-10zM310 300h10v10h-10zM40 310h10v10h-10zM100 310h10v10h-10zM140 310h10v10h-10zM150 310h10v10h-10zM190 310h10v10h-10zM200 310h10v10h-10zM220 310h10v10h-10zM230 310h10v10h-10zM240 310h10v10h-10zM270 310h10v10h-10zM280 310h10v10h-10zM290 310h10v10h-10zM310 310h10v10h-10zM40 320h10v10h-10zM50 320h10v10h-10zM60 320h10v10h-10zM70 320h10v10h-10zM80 320h10v10h-10zM90 320h10v10h-10zM100 320h10v10h-10zM120 320h10v10h-10zM140 320h10v10h-10zM160 320h10v10h-10zM170 320h10v10h-10zM190 320h10v10h-10zM200 320h10v10h-10zM210 320h10v10h-10zM230 320h10v10h-10zM270 320h10v10h-10zM280 320h10v10h-10zM300 320h10v10h-10z" fill="#000000"></path></svg>