<svg xmlns="http://www.w3.org/2000/svg" viewBox="0 0 450 450" shape-rendering="crispEdges"><rect width="450" height="450" fill="#ffffff"></rect><path d="M40 40h10v10h-10zM50 40h10v10h-10zM60 40h10v10h-10zM70 40h10v10h-10zM80 40h10v10h-10zM90 40h10v10h-10zM100 40h10v10h-10zM140 40h10v10h-10zM150 40h10v10h-10zM180 40h10v10h-10zM190 40h10v10h-10zM210 40h10v10h-10zM220 40h10v10h-10zM230 40h10v10h-10zM300 40h10v10h-10zM310 40h10v10h-10zM320 40h10v10h-10zM340 40h10v10h-10zM350 40h10v10h-10zM360 40h10v10h-10zM370 40h10v10h-10zM380 40h10v10h-10zM390 40h10v10h-10zM400 40h10v10h-10zM40 50h10v10h-10zM100 50h10v10h-10zM120 50h10v10h-10zM150 50h10v10h-10zM160 50h10v10h-10zM170 50h10v10h-10zM180 50h10v10h-10zM190 50h10v10h-10zM230 50h10v10h-10zM250 50h10v10h-10zM260 50h10v10h-10zM280 50h10v10h-10zM340 50h10v10h-10zM400 50h10v10h-10zM40 60h10v10h-10zM60 60h10v10h-10zM70 60h10v10h-10zM80 60h10v10h-10zM100 60h10v10h-10zM130 60h10v10h-10zM140 60h10v10h-10zM160 60h10v10h-10zM170 60h10v10h-10zM200 60h10v10h-10zM240 60h10v10h-10zM250 60h10v10h-10zM260 60h10v10h-10zM280 60h10v10h-10zM340 60h10v10h-10zM360 60h10v10h-10zM370 60h10v10h-10zM380 60h10v10h-10zM400 60h10v10h-10zM40 70h10v10h-10zM60 70h10v10h-10zM70 70h10v10h-10zM80 70h10v10h-10zM100 70h10v10h-10zM130 70h10v10h-10zM150 70h10v10h-10zM160 70h10v10h-10zM170 70h10v10h-10zM180 70h10v10h-10zM200 70h10v10h-10zM220 70h10v10h-10zM250 70h10v10h-10zM260 70h10v10h-10zM270 70h10v10h-10zM290 70h10v10h-10zM300 70h10v10h-10zM310 70h10v10h-10zM320 70h10v10h-10zM340 70h10v10h-10zM360 70h10v10h-10zM370 70h10v10h-10zM380 70h10v10h-10zM400 70h10v10h-10zM40 80h10v10h-10zM60 80h10v10h-10zM70 80h10v10h-10zM80 80h10v10h-10zM100 80h10v10h-10zM130 80h10v10h-10zM140 80h10v10h-10zM160 80h10v10h-10zM170 80h10v10h-10zM190 80h10v10h-10zM230 80h10v10h-10zM260 80h10v10h-10zM280 80h10v10h-10zM290 80h10v10h-10zM310 80h10v10h-10zM340 80h10v10h-10zM360 80h10v10h-10zM370 80h10v10h-10zM380 80h10v10h-10zM400 80h10v10h-10zM40 90h10v10h-10zM100 90h10v10h-10zM120 90h10v10h-10zM130 90h10v10h-10zM200 90h10v10h-10zM210 90h10v10h-10zM220 90h10v10h-10zM230 90h10v10h-10zM250 90h10v10h-10zM260 90h10v10h-10zM270 90h10v10h-10zM280 90h10v10h-10zM290 90h10v10h-10zM300 90h10v10h-10zM320 90h10v10h-10zM340 90h10v10h-10zM400 90h10v10h-10zM40 100h10v10h-10zM50 100h10v10h-10zM60 100h10v10h-10zM70 100h10v10h-10zM80 100h10v10h-10zM90 100h10v10h-10zM100 100h10v10h-10zM120 100h10v10h-10zM140 100h10v10h-10zM160 100h10v10h-10zM180 100h10v10h-10zM200 100h10v10h-10zM220 100h10v10h-10zM240 100h10v10h-10zM260 100h10v10h-10zM280 100h10v10h-10zM300 100h10v10h-10zM320 100h10v10h-10zM340 100h10v10h-10zM350 100h10v10h-10zM360 100h10v10h-10zM370 100h10v10h-10zM380 100h10v10h-10zM390 100h10v10h-10zM400 100h10v10h-10zM120 110h10v10h-10zM130 110h10v10h-10zM150 110h10v10h-10zM190 110h10v10h-10zM200 110h10v10h-10zM210 110h10v10h-10zM220 110h10v10h-10zM230 110h10v10h-10zM240 110h10v10h-10zM260 110h10v10h-10zM300 110h10v10h-10zM80 120h10v10h-10zM90 120h10v10h-10zM100 120h10v10h-10zM110 120h10v10h-10zM140 120h10v10h-10zM170 120h10v10h-10zM190 120h10v10h-10zM200 120h10v10h-10zM230 120h10v10h-10zM270 120h10v10h-10zM290 120h10v10h-10zM300 120h10v10h-10zM310 120h10v10h-10zM340 120h10v10h-10zM350 120h10v10h-10zM390 120h10v10h-10zM50 130h10v10h-10zM70 130h10v10h-10zM80 130h10v10h-10zM90 130h10v10h-10zM120 130h10v10h-10zM140 130h10v10h-10zM170 130h10v10h-10zM210 130h10v10h-10zM240 130h10v10h-10zM250 130h10v10h-10zM270 130h10v10h-10zM320 130h10v10h-10zM340 130h10v10h-10zM350 130h10v10h-10zM360 130h10v10h-10zM370 130h10v10h-10zM380 130h10v10h-10zM50 140h10v10h-10zM60 140h10v10h-10zM70 140h10v10h-10zM80 140h10v10h-10zM90 140h10v10h-10zM100 140h10v10h-10zM110 140h10v10h-10zM140 140h10v10h-10zM150 140h10v10h-10zM170 140h10v10h-10zM180 140h10v10h-10zM200 140h10v10h-10zM240 140h10v10h-10zM250 140h10v10h-10zM270 140h10v10h-10zM290 140h10v10h-10zM300 140h10v10h-10zM320 140h10v10h-10zM330 140h10v10h-10zM360 140h10v10h-10zM370 140h10v10h-10zM390 140h10v10h-10zM60 150h10v10h-10zM70 150h10v10h-10zM80 150h10v10h-10zM90 150h10v10h-10zM140 150h10v10h-10zM160 150h10v10h-10zM170 150h10v10h-10zM230 150h10v10h-10zM240 150h10v10h-10zM250 150h10v10h-10zM260 150h10v10h-10zM300 150h10v10h-10zM330 150h10v10h-10zM350 150h10v10h-10zM380 150h10v10h-10zM400 150h10v10h-10zM90 160h10v10h-10zM100 160h10v10h-10zM110 160h10v10h-10zM130 160h10v10h-10zM150 160h10v10h-10zM160 160h10v10h-10zM170 160h10v10h-10zM180 160h10v10h-10zM200 160h10v10h-10zM220 160h10v10h-10zM260 160h10v10h-10zM270 160h10v10h-10zM310 160h10v10h-10zM330 160h10v10h-10zM340 160h10v10h-10zM350 160h10v10h-10zM370 160h10v10h-10zM380 160h10v10h-10zM400 160h10v10h-10zM70 170h10v10h-10zM80 170h10v10h-10zM110 170h10v10h-10zM130 170h10v10h-10zM140 170h10v10h-10zM150 170h10v10h-10zM160 170h10v10h-10zM180 170h10v10h-10zM210 170h10v10h-10zM220 170h10v10h-10zM230 170h10v10h-10zM240 170h10v10h-10zM250 170h10v10h-10zM260 170h10v10h-10zM270 170h10v10h-10zM300 170h10v10h-10zM310 170h10v10h-10zM320 170h10v10h-10zM330 170h10v10h-10zM350 170h10v10h-10zM360 170h10v10h-10zM380 170h10v10h-10zM50 180h10v10h-10zM70 180h10v10h-10zM80 180h10v10h-10zM100 180h10v10h-10zM160 180h10v10h-10zM170 180h10v10h-10zM180 180h10v10h-10zM190 180h10v10h-10zM200 180h10v10h-10zM210 180h10v10h-10zM230 180h10v10h-10zM240 180h10v10h-10zM250 180h10v10h-10zM310 180h10v10h-10zM330 180h10v10h-10zM350 180h10v10h-10zM370 180h10v10h-10zM380 180h10v10h-10zM60 190h10v10h-10zM90 190h10v10h-10zM120 190h10v10h-10zM130 190h10v10h-10zM140 190h10v10h-10zM150 190h10v10h-10zM170 190h10v10h-10zM200 190h10v10h-10zM210 190h10v10h-10zM220 190h10v10h-10zM230 190h10v10h-10zM250 190h10v10h-10zM260 190h10v10h-10zM280 190h10v10h-10zM300 190h10v10h-10zM340 190h10v10h-10zM380 190h10v10h-10zM390 190h10v10h-10zM40 200h10v10h-10zM90 200h10v10h-10zM100 200h10v10h-10zM110 200h10v10h-10zM120 200h10v10h-10zM140 200h10v10h-10zM160 200h10v10h-10zM210 200h10v10h-10zM240 200h10v10h-10zM260 200h10v10h-10zM280 200h10v10h-10zM310 200h10v10h-10zM320 200h10v10h-10zM330 200h10v10h-10zM340 200h10v10h-10zM370 200h10v10h-10zM380 200h10v10h-10zM390 200h10v10h-10zM400 200h10v10h-10zM70 210h10v10h-10zM140 210h10v10h-10zM170 210h10v10h-10zM180 210h10v10h-10zM190 210h10v10h-10zM200 210h10v10h-10zM220 210h10v10h-10zM270 210h10v10h-10zM280 210h10v10h-10zM290 210h10v10h-10zM300 210h10v10h-10zM310 210h10v10h-10zM320 210h10v10h-10zM360 210h10v10h-10zM370 210h10v10h-10zM50 220h10v10h-10zM70 220h10v10h-10zM100 220h10v10h-10zM110 220h10v10h-10zM120 220h10v10h-10zM130 220h10v10h-10zM150 220h10v10h-10zM170 220h10v10h-10zM190 220h10v10h-10zM220 220h10v10h-10zM300 220h10v10h-10zM310 220h10v10h-10zM320 220h10v10h-10zM340 220h10v10h-10zM380 220h10v10h-10zM70 230h10v10h-10zM80 230h10v10h-10zM110 230h10v10h-10zM120 230h10v10h-10zM150 230h10v10h-10zM160 230h10v10h-10zM170 230h10v10h-10zM190 230h10v10h-10zM200 230h10v10h-10zM220 230h10v10h-10zM230 230h10v10h-10zM250 230h10v10h-10zM270 230h10v10h-10zM280 230h10v10h-10zM320 230h10v10h-10zM340 230h10v10h-10zM360 230h10v10h-10zM380 230h10v10h-10zM40 240h10v10h-10zM80 240h10v10h-10zM90 240h10v10h-10zM100 240h10v10h-10zM140 240h10v10h-10zM150 240h10v10h-10zM200 240h10v10h-10zM210 240h10v10h-10zM230 240h10v10h-10zM240 240h10v10h-10zM260 240h10v10h-10zM270 240h10v10h-10zM280 240h10v10h-10zM330 240h10v10h-10zM340 240h10v10h-10zM380 240h10v10h-10zM390 240h10v10h-10zM400 240h10v10h-10zM40 250h10v10h-10zM60 250h10v10h-10zM90 250h10v10h-10zM110 250h10v10h-10zM130 250h10v10h-10zM180 250h10v10h-10zM200 250h10v10h-10zM230 250h10v10h-10zM240 250h10v10h-10zM270 250h10v10h-10zM300 250h10v10h-10zM310 250h10v10h-10zM360 250h10v10h-10zM370 250h10v10h-10zM380 250h10v10h-10zM50 260h10v10h-10zM100 260h10v10h-10zM110 260h10v10h-10zM120 260h10v10h-10zM130 260h10v10h-10zM140 260h10v10h-10zM150 260h10v10h-10zM170 260h10v10h-10zM200 260h10v10h-10zM210 260h10v10h-10zM220 260h10v10h-10zM240 260h10v10h-10zM250 260h10v10h-10zM280 260h10v10h-10zM290 260h10v10h-10zM300 260h10v10h-10zM310 260h10v10h-10zM320 260h10v10h-10zM340 260h10v10h-10zM370 260h10v10h-10zM390 260h10v10h-10zM50 270h10v10h-10zM60 270h10v10h-10zM70 270h10v10h-10zM120 270h10v10h-10zM130 270h10v10h-10zM140 270h10v10h-10zM160 270h10v10h-10zM170 270h10v10h-10zM190 270h10v10h-10zM200 270h10v10h-10zM220 270h10v10h-10zM260 270h10v10h-10zM270 270h10v10h-10zM280 270h10v10h-10zM290 270h10v10h-10zM320 270h10v10h-10zM330 270h10v10h-10zM340 270h10v10h-10zM350 270h10v10h-10zM380 270h10v10h-10zM390 270h10v10h-10zM80 280h10v10h-10zM100 280h10v10h-10zM110 280h10v10h-10zM130 280h10v10h-10zM140 280h10v10h-10zM150 280h10v10h-10zM210 280h10v10h-10zM220 280h10v10h-10zM250 280h10v10h-10zM260 280h10v10h-10zM280 280h10v10h-10zM290 280h10v10h-10zM310 280h10v10h-10zM320 280h10v10h-10zM330 280h10v10h-10zM350 280h10v10h-10zM380 280h10v10h-10zM390 280h10v10h-10zM400 280h10v10h-10zM40 290h10v10h-10zM60 290h10v10h-10zM70 290h10v10h-10zM140 290h10v10h-10zM150 290h10v10h-10zM170 290h10v10h-10zM180 290h10v10h-10zM190 290h10v10h-10zM200 290h10v10h-10zM210 290h10v10h-10zM220 290h10v10h-10zM230 290h10v10h-10zM240 290h10v10h-10zM260 290h10v10h-10zM290 290h10v10h-10zM300 290h10v10h-10zM340 290h10v10h-10zM360 290h10v10h-10zM370 290h10v10h-10zM390 290h10v10h-10zM60 300h10v10h-10zM70 300h10v10h-10zM90 300h10v10h-10zM100 300h10v10h-10zM110 300h10v10h-10zM130 300h10v10h-10zM140 300h10v10h-10zM150 300h10v10h-10zM160 300h10v10h-10zM200 300h10v10h-10zM210 300h10v10h-10zM230 300h10v10h-10zM300 300h10v10h-10zM310 300h10v10h-10zM330 300h10v10h-10zM350 300h10v10h-10zM360 300h10v10h-10zM370 300h10v10h-10zM70 310h10v10h-10zM80 310h10v10h-10zM110 310h10v10h-10zM150 310h10v10h-10zM190 310h10v10h-10zM200 310h10v10h-10zM210 310h10v10h-10zM220 310h10v10h-10zM240 310h10v10h-10zM280 310h10v10h-10zM300 310h10v10h-10zM310 310h10v10h-10zM320 310h10v10h-10zM340 310h10v10h-10zM380 310h10v10h-10zM40 320h10v10h-10zM50 320h10v10h-10zM60 320h10v10h-10zM70 320h10v10h-10zM80 320h10v10h-10zM100 320h10v10h-10zM120 320h10v10h-10zM130 320h10v10h-10zM140 320h10v10h-10zM160 320h10v10h-10zM190 320h10v10h-10zM220 320h10v10h-10zM260 320h10v10h-10zM270 320h10v10h-10zM320 320h10v10h-10zM330 320h10v10h-10zM340 320h10v10h-10zM350 320h10v10h-10zM360 320h10v10h-10zM380 320h10v10h-10zM390 320h10v10h-10zM400 320h10v10h-10zM120 330h10v10h-10zM140 330h10v10h-10zM150 330h10v10h-10zM160 330h10v10h-10zM180 330h10v10h-10zM200 330h10v10h-10zM230 330h10v10h-10zM240 330h10v10h-10zM270 330h10v10h-10zM290 330h10v10h-10zM320 330h10v10h-10zM360 330h10v10h-10zM370 330h10v10h-10zM390 330h10v10h-10zM40 340h10v10h-10zM50 340h10v10h-10zM60 340h10v10h-10zM70 340h10v10h-10zM80 340h10v10h-10zM90 340h10v10h-10zM100 340h10v10h-10zM120 340h10v10h-10zM130 340h10v10h-10zM160 340h10v10h-10zM190 340h10v10h-10zM220 340h10v10h-10zM260 340h10v10h-10zM270 340h10v10h-10zM280 340h10v10h-10zM290 340h10v10h-10zM320 340h10v10h-10zM340 340h10v10h-10zM360 340h10v10h-10zM370 340h10v10h-10zM380 340h10v10h-10zM40 350h10v10h-10zM100 350h10v10h-10zM120 350h10v10h-10zM130 350h10v10h-10zM150 350h10v10h-10zM170 350h10v10h-10zM190 350h10v10h-10zM200 350h10v10h-10zM230 350h10v10h-10zM240 350h10v10h-10zM250 350h10v10h-10zM260 350h10v10h-10zM300 350h10v10h-10zM320 350h10v10h-10zM360 350h10v10h-10zM380 350h10v10h-10zM390 350h10v10h-10zM400 350h10v10h-10zM40 360h10v10h-10zM60 360h10v10h-10zM70 360h10v10h-10zM80 360h10v10h-10zM100 360h10v10h-10zM120 360h10v10h-10zM140 360h10v10h-10zM160 360h10v10h-10zM180 360h10v10h-10zM190 360h10v10h-10zM200 360h10v10h-10zM220 360h10v10h-10zM230 360h10v10h-10zM240 360h10v10h-10zM320 360h10v10h-10zM330 360h10v10h-10zM340 360h10v10h-10zM350 360h10v10h-10zM360 360h10v10h-10zM370 360h10v10h-10zM380 360h10v10h-10zM400 360h10v10h-10zM40 370h10v10h-10zM60 370h10v10h-10zM70 370h10v10h-10zM80 370h10v10h-10zM100 370h10v10h-10zM180 370h10v10h-10zM200 370h10v10h-10zM210 370h10v10h-10zM230 370h10v10h-10zM260 370h10v10h-10zM280 370h10v10h-10zM290 370h10v10h-10zM300 370h10v10h-10zM310 370h10v10h-10zM320 370h10v10h-10zM340 370h10v10h-10zM350 370h10v10h-10zM40 380h10v10h-10zM60 380h10v10h-10zM70 380h10v10h-10zM80 380h10v10h-10zM100 380h10v10h-10zM130 380h10v10h-10zM140 380h10v10h-10zM150 380h10v10h-10zM160 380h10v10h-10zM210 380h10v10h-10zM230 380h10v10h-10zM260 380h10v10h-10zM270 380h10v10h-10zM280 380h10v10h-10zM310 380h10v10h-10zM320 380h10v10h-10zM340 380h10v10h-10zM350 380h10v10h-10zM390 380h10v10h-10zM40 390h10v10h-10zM100 390h10v10h-10zM150 390h10v10h-10zM180 390h10v10h-10zM190 390h10v10h-10zM200 390h10v10h-10zM210 390h10v10h-10zM230 390h10v10h-10zM240 390h10v10h-10zM270 390h10v10h-10zM300 390h10v10h-10zM350 390h10v10h-10zM360 390h10v10h-10zM380 390h10v10h-10zM390 390h10v10h-10zM40 400h10v10h-10zM50 400h10v10h-10zM60 400h10v10h-10zM70 400h10v10h-10zM80 400h10v10h-10zM90 400h10v10h-10zM100 400h10v10h-10zM140 400h10v10h-10zM170 400h10v10h-10zM180 400h10v10h-10zM190 400h10v10h-10zM220 400h10v10h-10zM230 400h10v10h-10zM240 400h10v10h-10zM250 400h10v10h-10zM280 400h10v10h-10zM310 400h10v10h-10zM330 400h10v10h-10zM340 400h10v10h-10zM350 400h10v10h-10zM360 400h10v10h-10zM380 400h10v10h-10zM390 400h10v10h-10zM400 400h10v10h-10z" fill="#000000"></path><rect x="146.2" y="175.4" width="157.5" height="99.2" rx="11.2" fill="#fff"></rect><g transform="translate(157.50 186.65) scale(0.1534)"><path d="M 212 50 L 412 250 L 212 450 L 12 250 Z" fill="#D2D2D2"></path><path d="M 612 50 L 812 250 L 612 450 L 412 250 Z" fill="#D2D2D2"></path><path d="M 240 50 L 440 250 L 240 450 L 40 250 Z" fill="#13A2CA"></path><path d="M 640 50 L 840 250 L 640 450 L 440 250 Z" fill="#1274BB"></path><path transform="translate(240 250) scale(0.13059 -0.13059) translate(-711.50 -704.50)" d="M137 0V1409H1245V1181H432V827H1184V599H432V228H1286V0Z" fill="#FFFFFF"></path><path transform="translate(640 250) scale(0.13059 -0.13059) translate(-787.00 -704.50)" d="M1105 0 778 535H432V0H137V1409H841Q1093 1409 1230.0 1300.5Q1367 1192 1367 989Q1367 841 1283.0 733.5Q1199 626 1056 592L1437 0ZM1070 977Q1070 1180 810 1180H432V764H818Q942 764 1006.0 820.0Q1070 876 1070 977Z" fill="#FFFFFF"></path><path d="M 430 334 L 447 351 L 430 368 L 413 351 Z" fill="#3C3C3C"></path><path d="M 430 388 L 447 405 L 430 422 L 413 405 Z" fill="#3C3C3C"></path><path d="M 403 361 L 420 378 L 403 395 L 386 378 Z" fill="#3C3C3C"></path><path d="M 457 361 L 474 378 L 457 395 L 440 378 Z" fill="#3C3C3C"></path></g></svg>